<?xml version="1.0" standalone="no"?>
<!DOCTYPE svg PUBLIC "-//W3C//DTD SVG 20010904//EN"
 "http://www.w3.org/TR/2001/REC-SVG-20010904/DTD/svg10.dtd">
<svg version="1.0" xmlns="http://www.w3.org/2000/svg"
 width="3655.000000pt" height="1126.000000pt" viewBox="0 0 3655.000000 1126.000000"
 preserveAspectRatio="xMidYMid meet">

<g transform="translate(0.000000,1126.000000) scale(0.100000,-0.100000)"
fill="#000000" stroke="none">
<path d="M1565 8866 c-144 -45 -271 -165 -362 -341 -36 -71 -93 -213 -93 -234
0 -4 43 -35 96 -70 336 -220 687 -540 963 -878 l99 -122 51 69 c106 143 237
251 362 300 l66 25 -23 90 c-156 622 -490 1056 -890 1159 -73 19 -213 20 -269
2z"/>
<path d="M3712 8299 c-102 -20 -221 -121 -300 -254 -57 -97 -114 -246 -152
-397 l-31 -126 98 -99 c155 -154 276 -354 362 -598 21 -59 42 -107 47 -107 14
-2 117 167 200 326 94 182 163 344 225 529 l50 148 -11 81 c-32 232 -131 397
-284 474 -72 36 -115 41 -204 23z"/>
<path d="M840 8059 c-231 -111 -406 -279 -494 -471 -19 -40 -41 -104 -51 -143
-23 -93 -23 -274 0 -375 84 -364 378 -700 795 -910 205 -103 537 -211 725
-235 28 -3 62 -8 76 -11 l26 -5 7 118 c17 303 82 605 188 881 39 101 39 103
22 130 -90 140 -492 559 -692 720 -194 157 -465 342 -502 342 -9 0 -54 -18
-100 -41z"/>
<path d="M34482 7973 c-29 -24 -1924 -3571 -1924 -3602 -1 -49 13 -51 338 -51
194 0 312 4 326 11 18 8 174 296 628 1162 333 634 615 1162 627 1175 12 12 31
22 42 22 11 0 31 -10 44 -22 14 -13 294 -536 622 -1163 329 -627 608 -1150
622 -1162 24 -23 27 -23 329 -23 191 0 313 4 325 10 12 7 19 21 19 38 0 17
-356 694 -951 1807 -522 979 -956 1785 -962 1792 -23 22 -62 25 -85 6z"/>
<path d="M7030 7680 c-537 -56 -958 -251 -1292 -598 -380 -396 -568 -875 -568
-1447 0 -904 496 -1609 1294 -1840 571 -164 1278 -115 1925 135 l83 32 -6 37
c-29 173 -31 240 -31 901 0 623 2 693 18 769 10 46 16 85 14 87 -5 5 -1207 47
-1212 42 -2 -2 2 -42 10 -88 8 -47 21 -146 28 -220 l12 -135 253 -3 252 -2 0
-559 0 -558 -72 -22 c-138 -40 -221 -52 -418 -58 -284 -8 -460 22 -657 112
-291 134 -533 412 -653 750 -111 314 -139 740 -70 1073 119 572 550 1006 1104
1109 134 25 436 22 621 -6 163 -25 333 -66 471 -116 54 -19 99 -34 100 -32 8
9 92 473 86 478 -13 13 -266 91 -357 111 -175 38 -295 49 -575 53 -151 2 -313
0 -360 -5z"/>
<path d="M4326 7570 c-3 -8 -18 -55 -34 -105 -96 -292 -227 -560 -413 -846
l-89 -136 19 -114 c11 -63 25 -163 32 -224 6 -60 13 -112 15 -114 11 -12 135
87 240 193 186 187 332 424 400 651 23 77 27 109 28 225 1 155 -17 230 -80
336 -50 84 -111 154 -118 134z"/>
<path d="M22524 7446 c-18 -8 -34 -24 -37 -37 -4 -13 -7 -822 -7 -1797 l0
-1773 25 -25 25 -25 998 4 c894 3 1008 5 1101 21 328 55 515 140 686 311 145
145 210 269 256 486 29 137 31 384 5 504 -63 286 -234 508 -475 618 l-72 32
65 43 c142 93 256 260 308 447 32 118 32 364 -1 485 -108 411 -452 670 -938
710 -74 6 -494 10 -1017 10 -726 -1 -897 -3 -922 -14z m1819 -526 c141 -12
192 -23 275 -62 79 -37 136 -93 171 -167 24 -52 26 -65 26 -196 0 -121 -3
-149 -23 -208 -43 -122 -140 -222 -260 -267 -127 -48 -149 -50 -799 -50 l-612
0 -15 22 c-14 20 -16 79 -16 451 0 284 4 435 11 448 6 11 20 24 32 29 30 12
1064 12 1210 0z m142 -1499 c360 -58 504 -212 505 -539 0 -171 -47 -298 -146
-389 -64 -59 -190 -119 -304 -145 -90 -20 -126 -21 -745 -25 l-651 -4 -27 21
-27 21 0 518 c0 481 1 519 18 533 9 9 24 18 32 21 28 12 1271 0 1345 -12z"/>
<path d="M26323 7453 c-56 -11 -53 107 -53 -1831 l0 -1783 25 -25 25 -25 998
4 c894 3 1008 5 1101 21 326 55 522 144 691 315 192 194 274 421 273 756 -1
277 -75 487 -231 656 -78 84 -143 132 -249 185 l-82 40 63 42 c142 93 257 261
307 447 32 119 33 354 1 480 -104 413 -453 677 -946 715 -125 10 -1875 12
-1923 3z m1810 -533 c141 -12 192 -23 275 -62 79 -37 136 -93 170 -167 23 -48
27 -73 30 -172 6 -186 -34 -304 -138 -403 -63 -60 -103 -83 -205 -117 l-70
-24 -640 -3 -640 -3 -17 22 c-17 19 -18 57 -18 459 0 404 1 438 18 452 9 9 24
18 32 21 26 10 1081 7 1203 -3z m142 -1499 c240 -39 370 -113 444 -251 80
-150 82 -418 4 -563 -67 -124 -208 -218 -393 -259 -90 -20 -126 -21 -745 -25
l-651 -4 -27 21 -27 21 0 518 c0 481 1 519 18 533 9 9 24 18 32 21 28 12 1271
0 1345 -12z"/>
<path d="M29453 7450 c-12 -5 -25 -20 -28 -32 -5 -18 213 -434 953 -1818 1037
-1942 976 -1836 1038 -1800 34 20 1928 3561 1929 3605 0 52 -18 55 -340 54
-203 0 -298 -3 -318 -12 -24 -10 -117 -180 -637 -1172 -335 -638 -617 -1166
-627 -1172 -24 -18 -57 -16 -81 5 -11 9 -293 538 -628 1174 -551 1050 -610
1158 -637 1168 -37 12 -592 13 -624 0z"/>
<path d="M20432 7429 c-66 -26 -155 -110 -184 -176 -33 -73 -36 -200 -8 -278
32 -86 132 -184 213 -209 80 -25 204 -19 270 13 61 30 131 100 164 165 38 74
44 206 13 290 -30 79 -116 166 -194 195 -76 28 -199 28 -274 0z"/>
<path d="M18808 7120 c-120 -9 -220 -18 -222 -21 -3 -2 -14 -146 -27 -319 -12
-173 -23 -316 -24 -318 -2 -2 -388 -51 -408 -52 -4 0 -6 -73 -5 -162 l3 -163
208 -3 207 -2 0 -823 c0 -845 3 -927 41 -1077 56 -222 204 -364 444 -426 99
-26 365 -26 485 0 143 31 409 128 455 166 9 7 6 49 -11 167 -13 87 -24 164
-24 172 0 16 -9 13 -105 -27 -146 -61 -335 -86 -442 -59 -84 22 -136 57 -178
120 -71 107 -69 80 -73 980 l-3 807 340 0 341 0 0 190 0 190 -340 0 -340 0 0
340 0 340 -52 -1 c-29 -1 -151 -9 -270 -19z"/>
<path d="M12670 6515 c-188 -42 -372 -169 -500 -349 l-35 -48 -7 88 c-15 208
-107 307 -269 290 -69 -7 -201 -53 -341 -118 l-107 -50 34 -33 c19 -18 47 -58
61 -89 56 -123 57 -135 61 -1086 4 -802 -3 -1192 -24 -1308 l-5 -32 327 0 327
0 -6 35 c-19 100 -25 374 -26 1120 l0 821 58 55 c181 177 327 243 535 244 109
0 118 1 123 20 26 114 79 437 72 442 -22 13 -216 12 -278 -2z"/>
<path d="M16899 6520 c-219 -37 -473 -167 -655 -334 l-71 -65 -7 75 c-25 272
-147 354 -401 269 -75 -24 -315 -133 -315 -142 0 -2 13 -15 29 -29 40 -33 77
-112 98 -204 14 -66 17 -184 20 -970 4 -822 -3 -1215 -24 -1312 l-5 -28 327 0
328 0 -7 58 c-19 156 -25 443 -26 1153 l0 775 65 52 c238 191 458 279 634 253
170 -26 260 -127 291 -329 13 -80 9 -1905 -4 -1939 l-8 -23 332 0 c321 0 331
1 325 19 -22 69 -28 262 -35 1121 -8 1010 -8 1018 -60 1175 -91 273 -362 439
-708 434 -42 -1 -98 -5 -123 -9z"/>
<path d="M9645 6501 c-55 -10 -136 -28 -180 -40 -79 -22 -283 -98 -297 -110
-9 -7 -78 -364 -72 -370 2 -2 39 12 81 31 164 75 355 120 588 138 357 29 533
-64 594 -312 14 -60 31 -256 31 -372 0 -87 0 -88 -22 -82 -13 4 -75 18 -138
32 -159 33 -340 41 -495 20 -474 -63 -790 -314 -887 -703 -31 -123 -31 -353 0
-464 89 -328 362 -526 749 -546 285 -14 512 69 752 275 28 24 51 40 51 35 0
-21 40 -234 45 -243 6 -10 577 -15 587 -5 3 4 2 23 -3 43 -28 126 -32 235 -39
1067 -8 950 -8 944 -69 1123 -39 112 -83 183 -166 267 -115 116 -274 185 -508
219 -147 22 -469 20 -602 -3z m621 -1386 c50 -8 99 -17 108 -21 14 -6 16 -44
16 -378 l0 -372 -81 -53 c-149 -99 -282 -141 -446 -141 -211 0 -333 63 -402
210 -24 50 -26 66 -26 180 0 105 4 136 23 192 103 298 417 447 808 383z"/>
<path d="M13755 6513 c-89 -11 -250 -49 -342 -79 -98 -33 -213 -79 -213 -86 0
-2 -15 -84 -34 -183 -19 -99 -32 -182 -30 -184 2 -2 39 12 81 31 164 75 355
120 588 138 357 29 533 -64 594 -312 14 -60 31 -256 31 -372 0 -87 0 -88 -22
-82 -13 4 -75 18 -138 32 -159 33 -340 41 -495 20 -474 -63 -790 -314 -887
-703 -31 -123 -31 -353 0 -464 72 -263 254 -437 540 -517 88 -24 113 -27 262
-26 137 0 178 4 242 22 167 46 300 115 425 222 l80 68 18 -111 c9 -61 21 -119
26 -129 9 -17 32 -18 298 -18 158 0 290 2 293 5 3 3 -1 28 -8 55 -27 104 -34
326 -34 1056 0 783 -4 879 -45 1041 -87 344 -308 517 -728 573 -73 9 -435 12
-502 3z m551 -1398 c50 -8 99 -17 108 -21 14 -6 16 -44 16 -378 l0 -372 -81
-53 c-149 -99 -282 -141 -446 -141 -248 0 -385 93 -423 288 -37 189 29 396
166 521 159 145 390 200 660 156z"/>
<path d="M20515 6481 c-91 -28 -139 -47 -257 -103 l-109 -51 40 -41 c52 -53
77 -111 96 -223 14 -80 15 -221 13 -1125 -3 -942 -5 -1038 -21 -1091 -9 -32
-17 -60 -17 -62 0 -3 156 -5 346 -5 326 0 346 1 339 18 -36 95 -45 355 -45
1443 0 667 -4 1004 -11 1044 -21 112 -67 176 -148 203 -49 17 -157 13 -226 -7z"/>
<path d="M1770 5461 c-400 -131 -855 -398 -1110 -651 -158 -156 -273 -339
-316 -500 -24 -89 -25 -273 -1 -360 42 -155 141 -314 278 -444 85 -81 215
-175 310 -225 l46 -25 69 49 c158 113 330 261 500 430 241 239 373 396 569
673 l81 113 -38 80 c-101 212 -182 518 -223 847 -8 64 -9 64 -165 13z"/>
<path d="M3846 5468 c-3 -7 -7 -42 -11 -78 -3 -36 -15 -117 -26 -181 l-20
-117 71 -118 c86 -142 210 -394 274 -557 53 -133 142 -400 152 -452 3 -20 10
-37 14 -40 5 -3 28 25 53 62 138 210 202 440 178 641 -27 219 -132 407 -335
599 -139 131 -341 271 -350 241z"/>
<path d="M3690 4758 c-49 -136 -160 -351 -234 -448 -60 -80 -153 -177 -204
-211 l-22 -16 20 -99 c31 -148 65 -252 119 -361 89 -175 190 -260 341 -284
215 -33 356 67 429 305 11 37 21 82 21 98 0 66 -121 429 -225 677 -49 117
-177 381 -203 419 -6 9 -19 -16 -42 -80z"/>
<path d="M2254 4228 c-287 -412 -656 -813 -995 -1084 -52 -41 -95 -81 -97 -90
-4 -17 39 -136 81 -219 53 -107 118 -198 191 -270 184 -179 409 -201 643 -64
85 50 258 226 332 339 146 219 275 549 377 955 37 152 40 171 25 176 -9 3 -47
16 -86 28 -120 39 -227 115 -340 242 -31 35 -60 65 -65 67 -4 2 -34 -34 -66
-80z"/>
<path d="M29390 2420 c-25 -4 -84 -13 -132 -20 l-88 -12 0 -869 0 -869 145 0
145 0 0 181 0 181 96 106 c53 59 101 107 106 107 5 0 86 -133 180 -295 94
-162 172 -297 174 -298 4 -6 274 41 274 47 0 4 -99 179 -220 390 l-220 384 78
86 c42 47 135 150 206 229 l128 142 -161 0 -161 0 -237 -272 -238 -272 -3 532
c-2 416 -5 532 -15 531 -6 -1 -32 -5 -57 -9z"/>
<path d="M33503 2407 l-133 -20 0 -869 0 -868 145 0 145 0 0 890 c0 706 -3
890 -12 889 -7 -1 -73 -11 -145 -22z"/>
<path d="M35508 2398 c-51 -13 -95 -65 -103 -122 -19 -127 113 -213 245 -160
130 52 113 245 -25 283 -47 13 -66 13 -117 -1z"/>
<path d="M36158 2398 c-51 -13 -95 -65 -103 -122 -19 -127 113 -213 245 -160
130 52 113 245 -25 283 -47 13 -66 13 -117 -1z"/>
<path d="M26530 2265 l0 -135 270 0 270 0 0 -740 0 -740 150 0 150 0 0 740 0
740 280 0 c182 0 280 4 280 10 0 12 -28 193 -36 233 l-6 27 -679 0 -679 0 0
-135z"/>
<path d="M28285 1934 c-194 -30 -369 -153 -449 -315 -57 -117 -70 -184 -70
-344 0 -161 13 -227 70 -344 71 -144 211 -248 388 -286 114 -25 292 -17 401
19 86 27 176 76 240 130 l39 33 -58 97 -57 96 -42 -33 c-110 -89 -204 -122
-347 -122 -88 0 -113 4 -154 23 -71 32 -112 66 -142 118 -28 48 -59 158 -49
174 4 6 174 10 436 10 l429 0 0 53 c0 75 -17 213 -35 282 -65 249 -241 397
-489 409 -44 2 -94 2 -111 0z m174 -250 c98 -29 164 -116 187 -246 l6 -38
-297 0 -298 0 7 41 c13 78 72 172 132 210 83 51 168 62 263 33z"/>
<path d="M32345 1926 c-237 -55 -390 -202 -452 -436 -24 -91 -24 -320 0 -410
47 -175 146 -306 286 -379 100 -52 181 -71 306 -71 182 0 309 47 426 158 133
125 197 312 186 537 -7 130 -25 204 -72 300 -94 193 -276 302 -515 311 -67 2
-126 -1 -165 -10z m242 -251 c137 -41 223 -195 223 -399 -1 -245 -129 -406
-325 -406 -189 0 -302 126 -321 358 -27 320 166 523 423 447z"/>
<path d="M34405 1926 c-237 -55 -390 -202 -452 -436 -24 -91 -24 -320 0 -410
47 -175 146 -306 286 -379 100 -52 181 -71 306 -71 182 0 309 47 426 158 133
125 197 312 186 537 -7 130 -25 204 -72 300 -94 193 -276 302 -515 311 -67 2
-126 -1 -165 -10z m242 -251 c137 -41 223 -195 223 -399 -1 -245 -129 -406
-325 -406 -189 0 -302 126 -321 358 -27 320 166 523 423 447z"/>
<path d="M31100 1915 c-87 -24 -194 -81 -253 -135 l-55 -50 -6 45 c-3 25 -9
65 -12 90 l-6 45 -134 0 -134 0 0 -630 0 -630 145 0 145 0 0 439 0 439 63 48
c34 26 91 61 127 78 57 27 76 31 150 31 71 0 91 -4 121 -23 74 -46 74 -41 77
-555 l3 -457 145 0 145 0 -3 513 c-3 503 -3 513 -25 567 -32 79 -74 124 -149
161 -61 30 -75 33 -178 36 -76 2 -128 -2 -166 -12z"/>
<path d="M35428 1188 l-3 -723 -23 -32 c-29 -41 -85 -57 -165 -48 -54 6 -58 5
-54 -12 3 -10 8 -57 12 -105 l7 -87 65 -7 c88 -9 207 1 268 22 64 22 135 93
161 159 18 47 19 91 22 803 l3 752 -145 0 -145 0 -3 -722z"/>
<path d="M36080 1280 l0 -630 145 0 145 0 0 630 0 630 -145 0 -145 0 0 -630z"/>
</g>
</svg>
