<?xml version="1.0" encoding="UTF-8"?>
<!DOCTYPE svg PUBLIC "-//W3C//DTD SVG 1.1//EN" "http://www.w3.org/Graphics/SVG/1.1/DTD/svg11.dtd">
<svg xmlns="http://www.w3.org/2000/svg" version="1.1" width="3655px" height="1126px" style="shape-rendering:geometricPrecision; text-rendering:geometricPrecision; image-rendering:optimizeQuality; fill-rule:evenodd; clip-rule:evenodd" xmlns:xlink="http://www.w3.org/1999/xlink">
<g><path style="opacity:1" fill="#016d41" d="M 184.5,239.5 C 183.504,239.414 182.671,239.748 182,240.5C 164.209,263.06 149.709,287.726 138.5,314.5C 139.193,315.518 139.859,316.518 140.5,317.5C 135.473,314.655 130.806,311.321 126.5,307.5C 135.233,282.706 147.233,259.373 162.5,237.5C 170.068,236.203 177.401,236.87 184.5,239.5 Z"/></g>
<g><path style="opacity:1" fill="#00673f" d="M 162.5,237.5 C 147.233,259.373 135.233,282.706 126.5,307.5C 123.489,306.331 120.822,304.664 118.5,302.5C 118.714,300.856 118.38,299.356 117.5,298C 118.636,296.47 119.636,295.137 120.5,294C 119.366,292.984 119.699,292.317 121.5,292C 121.167,291.667 120.833,291.333 120.5,291C 121.636,289.47 122.636,288.137 123.5,287C 122.366,285.984 122.699,285.317 124.5,285C 123.366,283.984 123.699,283.317 125.5,283C 125.167,282.667 124.833,282.333 124.5,282C 126.422,280.54 127.089,278.873 126.5,277C 128.301,276.683 128.634,276.016 127.5,275C 129.301,274.683 129.634,274.016 128.5,273C 130.301,272.683 130.634,272.016 129.5,271C 131.301,270.683 131.634,270.016 130.5,269C 132.301,268.683 132.634,268.016 131.5,267C 133.301,266.683 133.634,266.016 132.5,265C 134.301,264.683 134.634,264.016 133.5,263C 135.301,262.683 135.634,262.016 134.5,261C 135.167,260.667 135.833,260.333 136.5,260C 136.5,259 136.5,258 136.5,257C 137.833,255.667 139.167,254.333 140.5,253C 140.5,252 140.5,251 140.5,250C 143.494,248.843 145.16,246.676 145.5,243.5C 150.535,239.931 156.202,237.931 162.5,237.5 Z"/></g>
<g><path style="opacity:1" fill="#017342" d="M 184.5,239.5 C 191.467,240.821 197.8,243.488 203.5,247.5C 200.386,248.091 197.886,249.758 196,252.5C 177.304,274.542 162.138,298.875 150.5,325.5C 146.762,323.303 143.429,320.636 140.5,317.5C 139.859,316.518 139.193,315.518 138.5,314.5C 149.709,287.726 164.209,263.06 182,240.5C 182.671,239.748 183.504,239.414 184.5,239.5 Z"/></g>
<g><path style="opacity:1" fill="#035f3e" d="M 145.5,243.5 C 145.16,246.676 143.494,248.843 140.5,250C 140.5,251 140.5,252 140.5,253C 139.167,254.333 137.833,255.667 136.5,257C 136.5,258 136.5,259 136.5,260C 135.833,260.333 135.167,260.667 134.5,261C 135.634,262.016 135.301,262.683 133.5,263C 134.634,264.016 134.301,264.683 132.5,265C 133.634,266.016 133.301,266.683 131.5,267C 132.634,268.016 132.301,268.683 130.5,269C 131.634,270.016 131.301,270.683 129.5,271C 130.634,272.016 130.301,272.683 128.5,273C 129.634,274.016 129.301,274.683 127.5,275C 128.634,276.016 128.301,276.683 126.5,277C 127.089,278.873 126.422,280.54 124.5,282C 124.833,282.333 125.167,282.667 125.5,283C 123.699,283.317 123.366,283.984 124.5,285C 122.699,285.317 122.366,285.984 123.5,287C 122.636,288.137 121.636,289.47 120.5,291C 120.833,291.333 121.167,291.667 121.5,292C 119.699,292.317 119.366,292.984 120.5,294C 119.636,295.137 118.636,296.47 117.5,298C 118.38,299.356 118.714,300.856 118.5,302.5C 115.528,300.678 112.528,298.844 109.5,297C 110.099,295.378 110.766,293.878 111.5,292.5C 112.75,292.423 113.583,291.756 114,290.5C 117.463,282.581 120.629,274.581 123.5,266.5C 125.995,260.859 129.495,255.859 134,251.5C 137.456,248.198 141.289,245.531 145.5,243.5 Z"/></g>
<g><path style="opacity:1" fill="#017943" d="M 203.5,247.5 C 210.052,250.273 215.719,254.273 220.5,259.5C 219.127,259.343 217.793,259.51 216.5,260C 193.478,281.844 175.811,307.344 163.5,336.5C 158.848,333.179 154.515,329.513 150.5,325.5C 162.138,298.875 177.304,274.542 196,252.5C 197.886,249.758 200.386,248.091 203.5,247.5 Z"/></g>
<g><path style="opacity:1" fill="#027e44" d="M 220.5,259.5 C 225.562,263.559 229.895,268.226 233.5,273.5C 232.85,273.196 232.183,272.863 231.5,272.5C 205.746,292.03 186.746,316.697 174.5,346.5C 170.603,343.391 166.936,340.057 163.5,336.5C 175.811,307.344 193.478,281.844 216.5,260C 217.793,259.51 219.127,259.343 220.5,259.5 Z"/></g>
<g><path style="opacity:1" fill="#0d583e" d="M 123.5,266.5 C 120.629,274.581 117.463,282.581 114,290.5C 113.583,291.756 112.75,292.423 111.5,292.5C 113.906,283.026 117.906,274.359 123.5,266.5 Z"/></g>
<g><path style="opacity:1" fill="#0a8445" d="M 233.5,273.5 C 238.318,277.652 241.985,282.652 244.5,288.5C 239.134,291.021 234.134,294.188 229.5,298C 210.309,314.662 195.642,334.496 185.5,357.5C 181.5,354.167 177.833,350.5 174.5,346.5C 186.746,316.697 205.746,292.03 231.5,272.5C 232.183,272.863 232.85,273.196 233.5,273.5 Z"/></g>
<g><path style="opacity:1" fill="#037e44" d="M 391.5,297.5 C 400.403,312.299 408.57,327.632 416,343.5C 418.056,347.268 419.222,351.268 419.5,355.5C 418.276,362.167 416.276,368.501 413.5,374.5C 403.562,346.281 389.228,320.615 370.5,297.5C 369.675,296.614 368.675,296.281 367.5,296.5C 371.054,295.016 374.888,294.349 379,294.5C 383.641,294.067 387.808,295.067 391.5,297.5 Z"/></g>
<g><path style="opacity:1" fill="#118946" d="M 244.5,288.5 C 248.174,292.507 250.841,297.173 252.5,302.5C 226.492,317.838 207.159,339.172 194.5,366.5C 191.167,363.833 188.167,360.833 185.5,357.5C 195.642,334.496 210.309,314.662 229.5,298C 234.134,294.188 239.134,291.021 244.5,288.5 Z"/></g>
<g><path style="opacity:1" fill="#0a8445" d="M 367.5,296.5 C 368.675,296.281 369.675,296.614 370.5,297.5C 389.228,320.615 403.562,346.281 413.5,374.5C 411.6,381.876 408.934,388.876 405.5,395.5C 396.093,362.681 379.926,333.681 357,308.5C 355.871,306.859 354.371,305.859 352.5,305.5C 356.374,300.725 361.374,297.725 367.5,296.5 Z"/></g>
<g><path style="opacity:1" fill="#0c7844" d="M 391.5,297.5 C 402.194,302.838 409.694,311.171 414,322.5C 418.652,333.228 420.485,344.228 419.5,355.5C 419.222,351.268 418.056,347.268 416,343.5C 408.57,327.632 400.403,312.299 391.5,297.5 Z"/></g>
<g><path style="opacity:1" fill="#178d46" d="M 252.5,302.5 C 255.341,306.849 257.674,311.516 259.5,316.5C 246.954,321.197 236.121,328.53 227,338.5C 217.477,349.051 209.31,360.551 202.5,373C 202.989,374.138 203.322,375.305 203.5,376.5C 200.51,373.208 197.51,369.874 194.5,366.5C 207.159,339.172 226.492,317.838 252.5,302.5 Z"/></g>
<g><path style="opacity:1" fill="#118946" d="M 352.5,305.5 C 354.371,305.859 355.871,306.859 357,308.5C 379.926,333.681 396.093,362.681 405.5,395.5C 404.257,400.25 402.257,404.584 399.5,408.5C 389.493,375.799 372.826,347.132 349.5,322.5C 347.408,320.395 345.075,318.728 342.5,317.5C 344.733,312.599 348.066,308.599 352.5,305.5 Z"/></g>
<g><path style="opacity:1" fill="#00543a" d="M 99.5,318.5 C 98.5,318.5 97.5,318.5 96.5,318.5C 79.8796,370.936 69.5463,424.603 65.5,479.5C 63.5,478.167 61.8333,476.5 60.5,474.5C 64.5495,420.253 74.8829,367.253 91.5,315.5C 94.6876,314.747 97.3543,315.747 99.5,318.5 Z"/></g>
<g><path style="opacity:1" fill="#1d9046" d="M 259.5,316.5 C 261.229,320.021 262.562,323.687 263.5,327.5C 250.584,332.577 239.417,340.244 230,350.5C 221.864,359.803 214.697,369.803 208.5,380.5C 209.127,381.417 209.461,382.417 209.5,383.5C 207.273,381.393 205.273,379.06 203.5,376.5C 203.322,375.305 202.989,374.138 202.5,373C 209.31,360.551 217.477,349.051 227,338.5C 236.121,328.53 246.954,321.197 259.5,316.5 Z"/></g>
<g><path style="opacity:1" fill="#004d37" d="M 91.5,315.5 C 74.8829,367.253 64.5495,420.253 60.5,474.5C 58.5,473.167 56.8333,471.5 55.5,469.5C 55.9326,446.361 58.4326,423.361 63,400.5C 67.9126,373.518 74.0793,346.851 81.5,320.5C 84.5154,318.326 87.8487,316.659 91.5,315.5 Z"/></g>
<g><path style="opacity:1" fill="#178d46" d="M 342.5,317.5 C 345.075,318.728 347.408,320.395 349.5,322.5C 372.826,347.132 389.493,375.799 399.5,408.5C 398.008,412.818 396.008,416.818 393.5,420.5C 385.147,391.454 371.314,365.454 352,342.5C 347.261,337.256 342.095,332.59 336.5,328.5C 337.742,324.345 339.742,320.678 342.5,317.5 Z"/></g>
<g><path style="opacity:1" fill="#005a3c" d="M 99.5,318.5 C 101.674,318.75 103.341,319.75 104.5,321.5C 103.504,321.414 102.671,321.748 102,322.5C 84.4931,375.553 74.3264,429.886 71.5,485.5C 69.1667,483.833 67.1667,481.833 65.5,479.5C 69.5463,424.603 79.8796,370.936 96.5,318.5C 97.5,318.5 98.5,318.5 99.5,318.5 Z"/></g>
<g><path style="opacity:1" fill="#014735" d="M 81.5,320.5 C 74.0793,346.851 67.9126,373.518 63,400.5C 58.4326,423.361 55.9326,446.361 55.5,469.5C 53.1223,467.122 51.1223,464.455 49.5,461.5C 52.5428,414.946 60.8761,369.28 74.5,324.5C 76.3356,322.412 78.6689,321.079 81.5,320.5 Z"/></g>
<g><path style="opacity:1" fill="#00603d" d="M 104.5,321.5 C 106.434,322.11 108.101,323.11 109.5,324.5C 107.621,324.393 107.288,324.893 108.5,326C 106.519,326.605 106.185,327.605 107.5,329C 105.519,329.605 105.185,330.605 106.5,332C 104.875,332.853 104.542,333.853 105.5,335C 103.875,335.853 103.542,336.853 104.5,338C 102.964,340.714 101.63,343.547 100.5,346.5C 100.709,347.086 101.043,347.586 101.5,348C 100.642,349.788 99.6422,351.622 98.5,353.5C 98.7093,354.086 99.0426,354.586 99.5,355C 98.6422,356.788 97.6422,358.622 96.5,360.5C 97.4709,361.962 97.1376,363.295 95.5,364.5C 96.6682,365.906 96.3348,367.072 94.5,368C 94.9574,368.414 95.2907,368.914 95.5,369.5C 94.595,371.638 93.595,373.805 92.5,376C 93.6034,377.68 93.2701,379.18 91.5,380.5C 92.3473,382.061 92.0139,383.561 90.5,385C 91.6034,386.68 91.2701,388.18 89.5,389.5C 90.3473,391.061 90.0139,392.561 88.5,394C 89.6034,395.68 89.2701,397.18 87.5,398.5C 88.7345,400.398 88.4011,402.065 86.5,403.5C 86.8333,404.167 87.1667,404.833 87.5,405.5C 86.7064,408.44 85.7064,411.44 84.5,414.5C 84.8333,415.167 85.1667,415.833 85.5,416.5C 84.1667,421.833 82.8333,427.167 81.5,432.5C 82.6868,434.975 82.3535,437.309 80.5,439.5C 81.5888,442.109 81.2554,444.609 79.5,447C 80.292,449.691 79.9587,452.358 78.5,455C 78.8333,456 79.1667,457 79.5,458C 78.6938,463.321 77.6938,468.655 76.5,474C 77.785,478.71 77.785,483.377 76.5,488C 77.7101,489.039 78.7101,490.206 79.5,491.5C 76.5451,489.878 73.8785,487.878 71.5,485.5C 74.3264,429.886 84.4931,375.553 102,322.5C 102.671,321.748 103.504,321.414 104.5,321.5 Z"/></g>
<g><path style="opacity:1" fill="#014132" d="M 74.5,324.5 C 60.8761,369.28 52.5428,414.946 49.5,461.5C 46.7589,459.025 44.7589,456.025 43.5,452.5C 48.0385,410.938 55.7052,369.938 66.5,329.5C 68.6291,327.05 71.2957,325.383 74.5,324.5 Z"/></g>
<g><path style="opacity:1" fill="#00673f" d="M 109.5,324.5 C 113.025,325.759 116.025,327.759 118.5,330.5C 117.504,330.414 116.671,330.748 116,331.5C 98.771,382.812 88.271,435.478 84.5,489.5C 84.3187,492.163 84.9854,494.497 86.5,496.5C 83.6298,495.567 81.2964,493.9 79.5,491.5C 78.7101,490.206 77.7101,489.039 76.5,488C 77.785,483.377 77.785,478.71 76.5,474C 77.6938,468.655 78.6938,463.321 79.5,458C 79.1667,457 78.8333,456 78.5,455C 79.9587,452.358 80.292,449.691 79.5,447C 81.2554,444.609 81.5888,442.109 80.5,439.5C 82.3535,437.309 82.6868,434.975 81.5,432.5C 82.8333,427.167 84.1667,421.833 85.5,416.5C 85.1667,415.833 84.8333,415.167 84.5,414.5C 85.7064,411.44 86.7064,408.44 87.5,405.5C 87.1667,404.833 86.8333,404.167 86.5,403.5C 88.4011,402.065 88.7345,400.398 87.5,398.5C 89.2701,397.18 89.6034,395.68 88.5,394C 90.0139,392.561 90.3473,391.061 89.5,389.5C 91.2701,388.18 91.6034,386.68 90.5,385C 92.0139,383.561 92.3473,382.061 91.5,380.5C 93.2701,379.18 93.6034,377.68 92.5,376C 93.595,373.805 94.595,371.638 95.5,369.5C 95.2907,368.914 94.9574,368.414 94.5,368C 96.3348,367.072 96.6682,365.906 95.5,364.5C 97.1376,363.295 97.4709,361.962 96.5,360.5C 97.6422,358.622 98.6422,356.788 99.5,355C 99.0426,354.586 98.7093,354.086 98.5,353.5C 99.6422,351.622 100.642,349.788 101.5,348C 101.043,347.586 100.709,347.086 100.5,346.5C 101.63,343.547 102.964,340.714 104.5,338C 103.542,336.853 103.875,335.853 105.5,335C 104.542,333.853 104.875,332.853 106.5,332C 105.185,330.605 105.519,329.605 107.5,329C 106.185,327.605 106.519,326.605 108.5,326C 107.288,324.893 107.621,324.393 109.5,324.5 Z"/></g>
<g><path style="opacity:0.984" fill="#193768" d="M 3447.5,326.5 C 3451.52,325.9 3455.02,326.9 3458,329.5C 3521.91,448.822 3585.41,568.322 3648.5,688C 3648.51,689.812 3647.84,691.312 3646.5,692.5C 3624.54,693.655 3602.54,693.822 3580.5,693C 3539.78,618.388 3499.94,543.221 3461,467.5C 3459.41,465.33 3458.08,462.996 3457,460.5C 3453.33,456.5 3449.67,456.5 3446,460.5C 3405.75,536.676 3365.75,613.009 3326,689.5C 3324.83,690.667 3323.67,691.833 3322.5,693C 3300.26,693.827 3278.09,693.66 3256,692.5C 3254.63,690.305 3254.29,687.971 3255,685.5C 3318.67,565.488 3382.84,445.822 3447.5,326.5 Z"/></g>
<g><path style="opacity:1" fill="#239347" d="M 263.5,327.5 C 265.601,330.797 266.935,334.463 267.5,338.5C 243.585,349.083 225.918,366.083 214.5,389.5C 212.844,387.54 211.177,385.54 209.5,383.5C 209.461,382.417 209.127,381.417 208.5,380.5C 214.697,369.803 221.864,359.803 230,350.5C 239.417,340.244 250.584,332.577 263.5,327.5 Z"/></g>
<g><path style="opacity:1" fill="#1d9046" d="M 336.5,328.5 C 342.095,332.59 347.261,337.256 352,342.5C 371.314,365.454 385.147,391.454 393.5,420.5C 392.341,424.151 390.674,427.485 388.5,430.5C 379.43,397.183 362.763,368.349 338.5,344C 336.266,342.25 333.932,340.75 331.5,339.5C 332.603,335.503 334.269,331.836 336.5,328.5 Z"/></g>
<g><path style="opacity:1" fill="#013b2e" d="M 66.5,329.5 C 55.7052,369.938 48.0385,410.938 43.5,452.5C 41.412,450.664 40.0787,448.331 39.5,445.5C 43.902,408.088 50.5686,371.088 59.5,334.5C 61.5496,332.453 63.883,330.786 66.5,329.5 Z"/></g>
<g><path style="opacity:1" fill="#006d41" d="M 118.5,330.5 C 122.736,332.445 126.403,335.112 129.5,338.5C 110.107,391.801 99.4399,446.801 97.5,503.5C 93.3171,501.913 89.6505,499.579 86.5,496.5C 84.9854,494.497 84.3187,492.163 84.5,489.5C 88.271,435.478 98.771,382.812 116,331.5C 116.671,330.748 117.504,330.414 118.5,330.5 Z"/></g>
<g><path style="opacity:1" fill="#01342a" d="M 59.5,334.5 C 50.5686,371.088 43.902,408.088 39.5,445.5C 37.0875,442.632 35.4208,439.299 34.5,435.5C 38.3669,403.833 44.0336,372.499 51.5,341.5C 53.5491,338.45 56.2157,336.117 59.5,334.5 Z"/></g>
<g><path style="opacity:1" fill="#007342" d="M 129.5,338.5 C 134.413,341.118 138.746,344.452 142.5,348.5C 140.716,349.574 139.549,351.24 139,353.5C 120.92,404.39 111.42,456.723 110.5,510.5C 105.68,508.926 101.347,506.593 97.5,503.5C 99.4399,446.801 110.107,391.801 129.5,338.5 Z"/></g>
<g><path style="opacity:1" fill="#2c9647" d="M 267.5,338.5 C 270.434,346.22 272.767,354.22 274.5,362.5C 273.778,362.082 273.278,361.416 273,360.5C 253.096,368.406 237.429,381.406 226,399.5C 225.51,400.793 225.343,402.127 225.5,403.5C 221.844,398.872 218.178,394.206 214.5,389.5C 225.918,366.083 243.585,349.083 267.5,338.5 Z"/></g>
<g><path style="opacity:1" fill="#239347" d="M 331.5,339.5 C 333.932,340.75 336.266,342.25 338.5,344C 362.763,368.349 379.43,397.183 388.5,430.5C 387.083,433.669 385.417,436.669 383.5,439.5C 375.764,410.691 362.264,385.024 343,362.5C 338.52,358.263 333.853,354.263 329,350.5C 328.617,351.056 328.117,351.389 327.5,351.5C 328.238,347.285 329.572,343.285 331.5,339.5 Z"/></g>
<g><path style="opacity:1" fill="#042d25" d="M 51.5,341.5 C 44.0336,372.499 38.3669,403.833 34.5,435.5C 32.9802,433.11 31.9802,430.443 31.5,427.5C 31.3341,422.489 31.5007,417.489 32,412.5C 34.9622,392.393 38.4622,372.393 42.5,352.5C 44.3717,347.957 47.3717,344.29 51.5,341.5 Z"/></g>
<g><path style="opacity:1" fill="#017943" d="M 142.5,348.5 C 147.486,352.155 152.153,356.155 156.5,360.5C 155.033,359.708 153.7,359.708 152.5,360.5C 134.347,410.599 124.014,462.265 121.5,515.5C 117.418,514.624 113.751,512.957 110.5,510.5C 111.42,456.723 120.92,404.39 139,353.5C 139.549,351.24 140.716,349.574 142.5,348.5 Z"/></g>
<g><path style="opacity:1" fill="#299647" d="M 383.5,439.5 C 382.32,442.54 380.653,445.206 378.5,447.5C 370.892,420.278 358.058,395.945 340,374.5C 335.538,369.379 330.371,365.379 324.5,362.5C 325.036,358.686 326.036,355.019 327.5,351.5C 328.117,351.389 328.617,351.056 329,350.5C 333.853,354.263 338.52,358.263 343,362.5C 362.264,385.024 375.764,410.691 383.5,439.5 Z"/></g>
<g><path style="opacity:1" fill="#072721" d="M 42.5,352.5 C 38.4622,372.393 34.9622,392.393 32,412.5C 31.5007,417.489 31.3341,422.489 31.5,427.5C 29.7402,423.453 28.7402,419.12 28.5,414.5C 29.9794,396.626 32.6461,378.96 36.5,361.5C 37.7232,357.951 39.7232,354.951 42.5,352.5 Z"/></g>
<g><path style="opacity:0.985" fill="#000000" d="M 706.5,356.5 C 749.374,352.876 791.041,358.209 831.5,372.5C 831.833,373.5 832.167,374.5 832.5,375.5C 829.602,390.155 826.769,404.821 824,419.5C 823.612,420.428 822.945,421.095 822,421.5C 786.408,407.511 749.575,402.011 711.5,405C 658.452,413.717 621.619,442.883 601,492.5C 591.267,519.701 587.933,547.701 591,576.5C 593.398,617.081 608.898,651.581 637.5,680C 662.785,701.375 692.119,711.541 725.5,710.5C 744.088,710.845 762.088,707.845 779.5,701.5C 780.767,664.494 780.767,627.494 779.5,590.5C 762.833,590.5 746.167,590.5 729.5,590.5C 728.992,575.422 726.992,560.588 723.5,546C 762.509,546.311 801.509,547.311 840.5,549C 842.9,549.186 845.234,549.686 847.5,550.5C 844.745,559.616 843.245,568.949 843,578.5C 842.333,615.833 842.333,653.167 843,690.5C 843.382,703.321 844.882,715.988 847.5,728.5C 787.194,755.037 724.527,762.204 659.5,750C 588.603,733.104 543.103,689.604 523,619.5C 509.088,563.04 515.421,509.04 542,457.5C 579.506,395.981 634.339,362.314 706.5,356.5 Z"/></g>
<g><path style="opacity:1" fill="#017e44" d="M 156.5,360.5 C 160.456,362.788 163.789,365.788 166.5,369.5C 165.504,369.586 164.671,369.252 164,368.5C 145.187,417.399 135.02,468.065 133.5,520.5C 129.203,519.345 125.203,517.679 121.5,515.5C 124.014,462.265 134.347,410.599 152.5,360.5C 153.7,359.708 155.033,359.708 156.5,360.5 Z"/></g>
<g><path style="opacity:1" fill="#319947" d="M 324.5,362.5 C 330.371,365.379 335.538,369.379 340,374.5C 358.058,395.945 370.892,420.278 378.5,447.5C 376.527,451.457 374.194,455.124 371.5,458.5C 363.928,430.179 350.261,405.345 330.5,384C 327.667,381.833 324.833,379.667 322,377.5C 321.79,379.058 321.29,380.391 320.5,381.5C 321.07,374.98 322.404,368.646 324.5,362.5 Z"/></g>
<g><path style="opacity:1" fill="#09211e" d="M 36.5,361.5 C 32.6461,378.96 29.9794,396.626 28.5,414.5C 24.6362,395.881 27.3029,378.215 36.5,361.5 Z"/></g>
<g><path style="opacity:1" fill="#389c47" d="M 274.5,362.5 C 276.598,369.326 277.932,376.326 278.5,383.5C 260.216,388.989 245.882,399.822 235.5,416C 236.252,416.671 236.586,417.504 236.5,418.5C 232.479,413.804 228.812,408.804 225.5,403.5C 225.343,402.127 225.51,400.793 226,399.5C 237.429,381.406 253.096,368.406 273,360.5C 273.278,361.416 273.778,362.082 274.5,362.5 Z"/></g>
<g><path style="opacity:1" fill="#068244" d="M 166.5,369.5 C 167.5,369.833 168.167,370.5 168.5,371.5C 149.147,419.943 139.147,470.276 138.5,522.5C 136.597,522.204 134.93,521.537 133.5,520.5C 135.02,468.065 145.187,417.399 164,368.5C 164.671,369.252 165.504,369.586 166.5,369.5 Z"/></g>
<g><path style="opacity:1" fill="#067843" d="M 446.5,446.5 C 442.571,424.116 437.071,402.116 430,380.5C 429.617,379.944 429.117,379.611 428.5,379.5C 429.29,375.794 430.29,372.128 431.5,368.5C 431.733,367.068 432.4,366.568 433.5,367C 450.965,385.693 456.799,407.526 451,432.5C 450.097,437.476 448.597,442.142 446.5,446.5 Z"/></g>
<g><path style="opacity:1" fill="#0a8545" d="M 168.5,371.5 C 171.167,373.5 173.5,375.833 175.5,378.5C 160.96,413.33 151.793,449.664 148,487.5C 146.559,499.796 145.725,512.129 145.5,524.5C 143.035,524.233 140.701,523.566 138.5,522.5C 139.147,470.276 149.147,419.943 168.5,371.5 Z"/></g>
<g><path style="opacity:1" fill="#0f8745" d="M 175.5,378.5 C 177.5,379.833 179.167,381.5 180.5,383.5C 179.25,383.577 178.417,384.244 178,385.5C 160.001,431.298 151.168,478.298 151.5,526.5C 149.214,526.405 147.214,525.738 145.5,524.5C 145.725,512.129 146.559,499.796 148,487.5C 151.793,449.664 160.96,413.33 175.5,378.5 Z"/></g>
<g><path style="opacity:1" fill="#067e44" d="M 428.5,379.5 C 429.117,379.611 429.617,379.944 430,380.5C 437.071,402.116 442.571,424.116 446.5,446.5C 443.674,456.017 439.34,464.684 433.5,472.5C 431.499,450.329 426.999,428.662 420,407.5C 419.23,406.402 418.397,406.402 417.5,407.5C 421.188,398.091 424.854,388.758 428.5,379.5 Z"/></g>
<g><path style="opacity:0.973" fill="#000000" d="M 2051.5,379.5 C 2069.33,378.165 2082.17,385.498 2090,401.5C 2095.79,420.452 2090.63,435.618 2074.5,447C 2054.95,455.445 2038.79,451.279 2026,434.5C 2016.25,414.164 2020.41,397.331 2038.5,384C 2042.79,382.021 2047.12,380.521 2051.5,379.5 Z"/></g>
<g><path style="opacity:0.989" fill="#193768" d="M 2251.5,379.5 C 2317.17,379.333 2382.83,379.5 2448.5,380C 2476.34,382.344 2500.18,393.177 2520,412.5C 2543.36,441.967 2549.02,474.633 2537,510.5C 2530.48,527.357 2519.31,540.19 2503.5,549C 2536.33,562.517 2554.83,587.017 2559,622.5C 2563.06,698.783 2526.89,739.949 2450.5,746C 2383.83,746.667 2317.17,746.667 2250.5,746C 2249.67,745.167 2248.83,744.333 2248,743.5C 2247.33,623.5 2247.33,503.5 2248,383.5C 2248.69,381.65 2249.86,380.316 2251.5,379.5 Z M 2313.5,433.5 C 2354.17,433.333 2394.83,433.5 2435.5,434C 2476.4,438.242 2490.23,460.075 2477,499.5C 2469.34,515.606 2456.51,524.772 2438.5,527C 2396.86,528.621 2355.19,528.954 2313.5,528C 2310.9,527.065 2309.4,525.232 2309,522.5C 2308.33,494.833 2308.33,467.167 2309,439.5C 2309.6,436.746 2311.1,434.746 2313.5,433.5 Z M 2313.5,582.5 C 2354.83,582.333 2396.17,582.5 2437.5,583C 2489.46,586.641 2507.96,613.474 2493,663.5C 2486.29,675.534 2476.29,683.534 2463,687.5C 2458.22,688.902 2453.39,690.069 2448.5,691C 2403.19,692.625 2357.86,692.958 2312.5,692C 2310.95,690.786 2309.78,689.286 2309,687.5C 2308.33,654.167 2308.33,620.833 2309,587.5C 2310.02,585.313 2311.52,583.646 2313.5,582.5 Z"/></g>
<g><path style="opacity:0.99" fill="#193768" d="M 2630.5,379.5 C 2698.86,379.027 2767.19,379.527 2835.5,381C 2870.21,385.747 2896.05,403.247 2913,433.5C 2921.04,451.697 2923.71,470.697 2921,490.5C 2917.69,516.438 2904.86,535.938 2882.5,549C 2915.65,562.755 2934.15,587.589 2938,623.5C 2941.41,652.395 2935.41,679.062 2920,703.5C 2903.26,724.126 2881.76,736.96 2855.5,742C 2846.92,743.892 2838.25,745.226 2829.5,746C 2762.83,746.667 2696.17,746.667 2629.5,746C 2628.67,745.167 2627.83,744.333 2627,743.5C 2626.33,623.5 2626.33,503.5 2627,383.5C 2627.69,381.65 2628.86,380.316 2630.5,379.5 Z M 2692.5,433.5 C 2733.17,433.333 2773.83,433.5 2814.5,434C 2850.19,435.9 2865.02,454.4 2859,489.5C 2853.35,511.47 2839.19,523.97 2816.5,527C 2775.2,528.627 2733.86,528.96 2692.5,528C 2689.9,527.065 2688.4,525.232 2688,522.5C 2687.33,494.5 2687.33,466.5 2688,438.5C 2689.02,436.313 2690.52,434.646 2692.5,433.5 Z M 2692.5,582.5 C 2733.83,582.333 2775.17,582.5 2816.5,583C 2868.45,586.63 2886.95,613.464 2872,663.5C 2865.29,675.534 2855.29,683.534 2842,687.5C 2837.22,688.902 2832.39,690.069 2827.5,691C 2782.19,692.625 2736.86,692.958 2691.5,692C 2689.95,690.786 2688.78,689.286 2688,687.5C 2687.33,654.167 2687.33,620.833 2688,587.5C 2689.02,585.313 2690.52,583.646 2692.5,582.5 Z"/></g>
<g><path style="opacity:0.984" fill="#193768" d="M 2944.5,379.5 C 2965.84,379.333 2987.17,379.5 3008.5,380C 3009.67,381.167 3010.83,382.333 3012,383.5C 3052.33,460.167 3092.67,536.833 3133,613.5C 3136.33,617.5 3139.67,617.5 3143,613.5C 3183.67,536.167 3224.33,458.833 3265,381.5C 3265.75,380.874 3266.58,380.374 3267.5,380C 3289.17,379.333 3310.83,379.333 3332.5,380C 3335.75,382.739 3336.25,385.906 3334,389.5C 3270.29,508.413 3206.46,627.246 3142.5,746C 3139.04,746.817 3135.7,746.483 3132.5,745C 3070.21,628.913 3008.04,512.746 2946,396.5C 2942.57,392 2941.24,387 2942,381.5C 2942.99,380.934 2943.83,380.267 2944.5,379.5 Z"/></g>
<g><path style="opacity:1" fill="#118a46" d="M 180.5,383.5 C 182.5,384.833 184.167,386.5 185.5,388.5C 184.504,388.414 183.671,388.748 183,389.5C 165.341,433.781 156.175,479.781 155.5,527.5C 154.041,527.567 152.708,527.234 151.5,526.5C 151.168,478.298 160.001,431.298 178,385.5C 178.417,384.244 179.25,383.577 180.5,383.5 Z"/></g>
<g><path style="opacity:1" fill="#3a9e47" d="M 371.5,458.5 C 369.066,462.382 366.399,466.048 363.5,469.5C 358.142,446.12 347.976,425.12 333,406.5C 328.594,401.589 323.76,397.255 318.5,393.5C 318.74,389.394 319.407,385.394 320.5,381.5C 321.29,380.391 321.79,379.058 322,377.5C 324.833,379.667 327.667,381.833 330.5,384C 350.261,405.345 363.928,430.179 371.5,458.5 Z"/></g>
<g><path style="opacity:1" fill="#168d46" d="M 185.5,388.5 C 188.219,390.219 190.219,392.553 191.5,395.5C 173.619,438.232 164.286,482.899 163.5,529.5C 160.572,529.435 157.905,528.768 155.5,527.5C 156.175,479.781 165.341,433.781 183,389.5C 183.671,388.748 184.504,388.414 185.5,388.5 Z"/></g>
<g><path style="opacity:1" fill="#1c9046" d="M 191.5,395.5 C 193.5,396.833 195.167,398.5 196.5,400.5C 196.5,401.167 196.5,401.833 196.5,402.5C 179.896,443.854 171.229,486.854 170.5,531.5C 167.933,531.279 165.599,530.612 163.5,529.5C 164.286,482.899 173.619,438.232 191.5,395.5 Z"/></g>
<g><path style="opacity:1" fill="#46a346" d="M 278.5,383.5 C 280.562,391.586 281.895,399.919 282.5,408.5C 266.981,411.914 254.981,420.247 246.5,433.5C 242.425,429.024 239.092,424.024 236.5,418.5C 236.586,417.504 236.252,416.671 235.5,416C 245.882,399.822 260.216,388.989 278.5,383.5 Z"/></g>
<g><path style="opacity:1" fill="#44a246" d="M 318.5,393.5 C 323.76,397.255 328.594,401.589 333,406.5C 347.976,425.12 358.142,446.12 363.5,469.5C 360.305,474.569 356.638,479.235 352.5,483.5C 347.121,457.728 334.788,436.061 315.5,418.5C 315.766,410.037 316.766,401.704 318.5,393.5 Z"/></g>
<g><path style="opacity:0.965" fill="#427b50" d="M 196.5,400.5 C 197.906,400.973 198.573,401.973 198.5,403.5C 197.833,403.167 197.167,402.833 196.5,402.5C 196.5,401.833 196.5,401.167 196.5,400.5 Z"/></g>
<g><path style="opacity:1" fill="#239347" d="M 196.5,402.5 C 197.167,402.833 197.833,403.167 198.5,403.5C 200.914,404.911 202.581,406.911 203.5,409.5C 191.334,436.149 183.501,464.149 180,493.5C 178.464,506.497 177.297,519.497 176.5,532.5C 174.379,532.675 172.379,532.341 170.5,531.5C 171.229,486.854 179.896,443.854 196.5,402.5 Z"/></g>
<g><path style="opacity:1" fill="#0e8545" d="M 433.5,472.5 C 430.908,478.024 427.575,483.024 423.5,487.5C 420.85,467.084 416.85,446.918 411.5,427C 411.164,425.97 410.497,425.47 409.5,425.5C 411.974,419.412 414.64,413.412 417.5,407.5C 418.397,406.402 419.23,406.402 420,407.5C 426.999,428.662 431.499,450.329 433.5,472.5 Z"/></g>
<g><path style="opacity:1" fill="#299647" d="M 203.5,409.5 C 206.219,411.219 208.219,413.553 209.5,416.5C 197.886,441.526 190.386,467.86 187,495.5C 185.501,508.165 184.334,520.831 183.5,533.5C 181.05,533.702 178.717,533.369 176.5,532.5C 177.297,519.497 178.464,506.497 180,493.5C 183.501,464.149 191.334,436.149 203.5,409.5 Z"/></g>
<g><path style="opacity:0.978" fill="#000000" d="M 1911.5,410.5 C 1913.49,433.142 1914.16,456.142 1913.5,479.5C 1936.17,479.5 1958.83,479.5 1981.5,479.5C 1981.5,492.167 1981.5,504.833 1981.5,517.5C 1958.83,517.5 1936.17,517.5 1913.5,517.5C 1913.33,571.168 1913.5,624.834 1914,678.5C 1916.75,698.252 1928.09,708.586 1948,709.5C 1963.42,708.848 1977.92,704.848 1991.5,697.5C 1993.96,708.721 1995.96,720.054 1997.5,731.5C 1997.39,732.442 1997.06,733.275 1996.5,734C 1967.69,749.828 1937.03,755.495 1904.5,751C 1875.53,744.695 1859.03,726.862 1855,697.5C 1854,689.529 1853.34,681.529 1853,673.5C 1852.5,621.501 1852.33,569.501 1852.5,517.5C 1838.83,517.5 1825.17,517.5 1811.5,517.5C 1811.17,506.48 1811.5,495.48 1812.5,484.5C 1824.78,482.616 1837.12,480.949 1849.5,479.5C 1850.99,479.291 1852.16,478.624 1853,477.5C 1854.48,456.491 1855.98,435.491 1857.5,414.5C 1875.69,413.725 1893.69,412.392 1911.5,410.5 Z"/></g>
<g><path style="opacity:1" fill="#51a746" d="M 282.5,408.5 C 284.215,420.084 285.215,431.751 285.5,443.5C 284.523,440.713 284.19,437.713 284.5,434.5C 272.199,435.84 263.199,441.84 257.5,452.5C 253.442,446.43 249.775,440.097 246.5,433.5C 254.981,420.247 266.981,411.914 282.5,408.5 Z"/></g>
<g><path style="opacity:1" fill="#329a47" d="M 209.5,416.5 C 213.262,419.929 216.262,423.929 218.5,428.5C 217.542,428.047 216.708,427.381 216,426.5C 201.464,461.012 193.631,497.012 192.5,534.5C 195.059,534.198 197.393,534.532 199.5,535.5C 193.931,535.624 188.598,534.957 183.5,533.5C 184.334,520.831 185.501,508.165 187,495.5C 190.386,467.86 197.886,441.526 209.5,416.5 Z"/></g>
<g><path style="opacity:1" fill="#3a9e46" d="M 218.5,428.5 C 219.974,429.436 220.974,430.77 221.5,432.5C 221.427,434.027 222.094,435.027 223.5,435.5C 224.906,435.973 225.573,436.973 225.5,438.5C 224.603,437.402 223.77,437.402 223,438.5C 209.455,469.391 202.622,501.724 202.5,535.5C 201.5,535.5 200.5,535.5 199.5,535.5C 197.393,534.532 195.059,534.198 192.5,534.5C 193.631,497.012 201.464,461.012 216,426.5C 216.708,427.381 217.542,428.047 218.5,428.5 Z"/></g>
<g><path style="opacity:1" fill="#178b46" d="M 409.5,425.5 C 410.497,425.47 411.164,425.97 411.5,427C 416.85,446.918 420.85,467.084 423.5,487.5C 420.437,492.952 416.437,497.618 411.5,501.5C 409.19,481.973 405.69,462.64 401,443.5C 400.292,444.381 399.458,445.047 398.5,445.5C 400.25,441.665 402.25,437.999 404.5,434.5C 405.906,434.027 406.573,433.027 406.5,431.5C 406.992,429.181 407.992,427.181 409.5,425.5 Z"/></g>
<g><path style="opacity:1" fill="#52a945" d="M 315.5,418.5 C 334.788,436.061 347.121,457.728 352.5,483.5C 349.208,488.46 345.208,492.793 340.5,496.5C 336.985,476.463 327.985,459.463 313.5,445.5C 313.46,436.396 314.126,427.396 315.5,418.5 Z"/></g>
<g><path style="opacity:0.753" fill="#3d754f" d="M 406.5,431.5 C 406.573,433.027 405.906,434.027 404.5,434.5C 404.427,432.973 405.094,431.973 406.5,431.5 Z"/></g>
<g><path style="opacity:0.906" fill="#528752" d="M 221.5,432.5 C 222.906,432.973 223.573,433.973 223.5,435.5C 222.094,435.027 221.427,434.027 221.5,432.5 Z"/></g>
<g><path style="opacity:1" fill="#42a246" d="M 225.5,438.5 C 226.167,438.5 226.5,438.833 226.5,439.5C 226.427,441.027 227.094,442.027 228.5,442.5C 228.557,443.609 228.89,444.609 229.5,445.5C 217.162,474.191 210.495,504.191 209.5,535.5C 212.5,535.5 215.5,535.5 218.5,535.5C 213.266,536.802 207.933,536.802 202.5,535.5C 202.622,501.724 209.455,469.391 223,438.5C 223.77,437.402 224.603,437.402 225.5,438.5 Z"/></g>
<g><path style="opacity:0.812" fill="#568554" d="M 226.5,439.5 C 227.906,439.973 228.573,440.973 228.5,442.5C 227.094,442.027 226.427,441.027 226.5,439.5 Z"/></g>
<g><path style="opacity:0.812" fill="#588654" d="M 228.5,442.5 C 229.906,442.973 230.573,443.973 230.5,445.5C 230.167,445.5 229.833,445.5 229.5,445.5C 228.89,444.609 228.557,443.609 228.5,442.5 Z"/></g>
<g><path style="opacity:1" fill="#49a545" d="M 229.5,445.5 C 229.833,445.5 230.167,445.5 230.5,445.5C 230.427,447.027 231.094,448.027 232.5,448.5C 234.664,450.822 236.331,453.489 237.5,456.5C 237.5,456.833 237.5,457.167 237.5,457.5C 226.043,482.096 220.043,508.096 219.5,535.5C 219.167,535.5 218.833,535.5 218.5,535.5C 215.5,535.5 212.5,535.5 209.5,535.5C 210.495,504.191 217.162,474.191 229.5,445.5 Z"/></g>
<g><path style="opacity:1" fill="#5cac46" d="M 313.5,445.5 C 327.985,459.463 336.985,476.463 340.5,496.5C 337.564,501.105 333.898,505.105 329.5,508.5C 327.2,494.431 321.7,481.764 313,470.5C 312.5,478.159 312.334,485.826 312.5,493.5C 311.266,477.576 311.599,461.576 313.5,445.5 Z"/></g>
<g><path style="opacity:1" fill="#5eac46" d="M 285.5,443.5 C 286.725,454.652 286.725,465.652 285.5,476.5C 285.5,470.167 285.5,463.833 285.5,457.5C 276.948,458.454 270.614,462.454 266.5,469.5C 263.249,463.999 260.249,458.333 257.5,452.5C 263.199,441.84 272.199,435.84 284.5,434.5C 284.19,437.713 284.523,440.713 285.5,443.5 Z"/></g>
<g><path style="opacity:0.812" fill="#598754" d="M 230.5,445.5 C 231.906,445.973 232.573,446.973 232.5,448.5C 231.094,448.027 230.427,447.027 230.5,445.5 Z"/></g>
<g><path style="opacity:1" fill="#229247" d="M 411.5,501.5 C 407.441,506.562 402.774,510.895 397.5,514.5C 397.164,496.149 394.498,478.149 389.5,460.5C 389.328,459.508 389.662,458.842 390.5,458.5C 391.906,458.027 392.573,457.027 392.5,455.5C 394,451.827 396,448.494 398.5,445.5C 399.458,445.047 400.292,444.381 401,443.5C 405.69,462.64 409.19,481.973 411.5,501.5 Z"/></g>
<g><path style="opacity:0.753" fill="#477a51" d="M 392.5,455.5 C 392.573,457.027 391.906,458.027 390.5,458.5C 390.427,456.973 391.094,455.973 392.5,455.5 Z"/></g>
<g><path style="opacity:0.753" fill="#5d8955" d="M 237.5,456.5 C 238.906,456.973 239.573,457.973 239.5,459.5C 238.5,459.167 237.833,458.5 237.5,457.5C 237.5,457.167 237.5,456.833 237.5,456.5 Z"/></g>
<g><path style="opacity:1" fill="#2a9547" d="M 389.5,460.5 C 394.498,478.149 397.164,496.149 397.5,514.5C 395.909,516.633 393.909,518.299 391.5,519.5C 390.639,502.614 388.306,485.947 384.5,469.5C 384.5,468.833 384.5,468.167 384.5,467.5C 385.811,464.865 387.478,462.531 389.5,460.5 Z"/></g>
<g><path style="opacity:1" fill="#53a945" d="M 237.5,457.5 C 237.833,458.5 238.5,459.167 239.5,459.5C 241.588,461.336 242.921,463.669 243.5,466.5C 243.427,468.027 244.094,469.027 245.5,469.5C 246.338,469.842 246.672,470.508 246.5,471.5C 245.176,470.15 244.176,470.317 243.5,472C 234.583,492.093 230.25,512.926 230.5,534.5C 227.038,535.482 223.371,535.815 219.5,535.5C 220.043,508.096 226.043,482.096 237.5,457.5 Z"/></g>
<g><path style="opacity:0.753" fill="#618b55" d="M 243.5,466.5 C 244.906,466.973 245.573,467.973 245.5,469.5C 244.094,469.027 243.427,468.027 243.5,466.5 Z"/></g>
<g><path style="opacity:0.812" fill="#4d7d53" d="M 384.5,467.5 C 384.5,468.167 384.5,468.833 384.5,469.5C 383.833,469.833 383.167,470.167 382.5,470.5C 382.427,468.973 383.094,467.973 384.5,467.5 Z"/></g>
<g><path style="opacity:1" fill="#5cad45" d="M 246.5,471.5 C 249.927,476.016 252.593,481.016 254.5,486.5C 252.864,487.749 251.697,489.416 251,491.5C 245.948,504.373 243.115,517.707 242.5,531.5C 243.833,531.5 245.167,531.5 246.5,531.5C 241.475,533.504 236.142,534.504 230.5,534.5C 230.25,512.926 234.583,492.093 243.5,472C 244.176,470.317 245.176,470.15 246.5,471.5 Z"/></g>
<g><path style="opacity:0.906" fill="#4a8351" d="M 382.5,470.5 C 382.573,472.027 381.906,473.027 380.5,473.5C 380.427,471.973 381.094,470.973 382.5,470.5 Z"/></g>
<g><path style="opacity:0.981" fill="#000000" d="M 982.5,472.5 C 997.558,472.307 1012.56,473.14 1027.5,475C 1072.24,481.919 1095.74,508.086 1098,553.5C 1098.33,603.5 1098.67,653.5 1099,703.5C 1099.38,718.295 1100.88,732.962 1103.5,747.5C 1083.49,747.833 1063.49,747.5 1043.5,746.5C 1041.79,738.22 1040.29,729.887 1039,721.5C 1006.9,753.057 969.401,761.557 926.5,747C 900.466,736.128 885.632,716.628 882,688.5C 879.369,627.652 908.202,592.152 968.5,582C 991.806,579.016 1014.81,580.516 1037.5,586.5C 1037.67,575.828 1037.5,565.161 1037,554.5C 1036.48,539.973 1030.98,527.806 1020.5,518C 1014.6,514.478 1008.27,512.145 1001.5,511C 969.197,508.428 938.53,514.261 909.5,528.5C 909.167,527.667 908.833,526.833 908.5,526C 910.644,514.116 912.977,502.282 915.5,490.5C 936.82,480.255 959.153,474.255 982.5,472.5 Z M 1001.5,612.5 C 1013.67,612.445 1025.67,613.778 1037.5,616.5C 1037.67,641.502 1037.5,666.502 1037,691.5C 1016.48,708.089 993.309,713.589 967.5,708C 952.689,703.187 944.522,693.021 943,677.5C 941.107,650.446 952.274,630.946 976.5,619C 984.693,615.736 993.027,613.569 1001.5,612.5 Z"/></g>
<g><path style="opacity:0.979" fill="#000000" d="M 1269.5,472.5 C 1278.2,472.289 1286.87,472.623 1295.5,473.5C 1292.58,489.123 1289.91,504.789 1287.5,520.5C 1267.57,517.583 1249.57,522.083 1233.5,534C 1227.36,539.134 1221.53,544.634 1216,550.5C 1215.1,611.177 1215.43,671.844 1217,732.5C 1217.22,737.292 1218.05,741.958 1219.5,746.5C 1197.17,747.666 1174.84,747.833 1152.5,747C 1153.89,741.628 1154.72,736.128 1155,730.5C 1155.67,662.833 1155.67,595.167 1155,527.5C 1154.51,517.53 1151.84,508.196 1147,499.5C 1144.98,497.316 1142.82,495.316 1140.5,493.5C 1153.17,485.505 1166.83,479.672 1181.5,476C 1194.77,472.888 1204.27,477.388 1210,489.5C 1211.77,496.751 1213.1,504.084 1214,511.5C 1227.32,490.942 1245.82,477.942 1269.5,472.5 Z"/></g>
<g><path style="opacity:0.981" fill="#000000" d="M 1386.5,472.5 C 1410.01,471.463 1433.01,474.297 1455.5,481C 1479.04,490.872 1493.54,508.372 1499,533.5C 1500.43,540.102 1501.43,546.768 1502,553.5C 1502.33,604.833 1502.67,656.167 1503,707.5C 1503,721.024 1504.5,734.357 1507.5,747.5C 1487.5,747.667 1467.5,747.5 1447.5,747C 1445.35,738.992 1443.85,730.825 1443,722.5C 1410.54,753.128 1373.04,761.295 1330.5,747C 1304.47,736.128 1289.63,716.628 1286,688.5C 1283.37,627.647 1312.2,592.147 1372.5,582C 1395.81,579.016 1418.81,580.516 1441.5,586.5C 1441.67,575.828 1441.5,565.161 1441,554.5C 1440.48,539.973 1434.98,527.806 1424.5,518C 1418.6,514.478 1412.27,512.145 1405.5,511C 1373.18,508.331 1342.51,514.164 1313.5,528.5C 1313.17,527.667 1312.83,526.833 1312.5,526C 1314.67,514.5 1316.83,503 1319,491.5C 1319.31,490.692 1319.81,490.025 1320.5,489.5C 1341.66,480.044 1363.66,474.378 1386.5,472.5 Z M 1405.5,612.5 C 1417.67,612.445 1429.67,613.778 1441.5,616.5C 1441.67,641.502 1441.5,666.502 1441,691.5C 1420.48,708.089 1397.31,713.589 1371.5,708C 1356.69,703.187 1348.52,693.021 1347,677.5C 1345.54,649.24 1357.71,629.407 1383.5,618C 1390.76,615.321 1398.1,613.487 1405.5,612.5 Z"/></g>
<g><path style="opacity:0.987" fill="#000000" d="M 1690.5,472.5 C 1712.51,469.945 1732.84,474.445 1751.5,486C 1769.32,500.822 1778.16,519.989 1778,543.5C 1778.13,604.508 1778.8,665.508 1780,726.5C 1780.44,733.557 1781.28,740.557 1782.5,747.5C 1760.16,747.667 1737.83,747.5 1715.5,747C 1717.05,741.995 1717.88,736.829 1718,731.5C 1718.97,670.809 1718.64,610.142 1717,549.5C 1711.1,523.284 1694.93,513.451 1668.5,520C 1649.9,526.381 1633.4,536.215 1619,549.5C 1618.13,608.509 1618.46,667.509 1620,726.5C 1620.44,733.56 1621.28,740.56 1622.5,747.5C 1600.5,747.5 1578.5,747.5 1556.5,747.5C 1558.01,730.21 1558.84,712.876 1559,695.5C 1559.93,638.82 1559.59,582.153 1558,525.5C 1557.62,512.581 1552.79,501.748 1543.5,493C 1556.54,485.766 1570.21,480.099 1584.5,476C 1601.21,472.388 1611.37,478.888 1615,495.5C 1615.97,501.13 1616.63,506.796 1617,512.5C 1637.45,491.693 1661.95,478.359 1690.5,472.5 Z"/></g>
<g><path style="opacity:0.978" fill="#000000" d="M 2059.5,474.5 C 2076.51,473.008 2086.34,480.675 2089,497.5C 2090.29,572.818 2090.96,648.151 2091,723.5C 2091.41,731.632 2092.58,739.632 2094.5,747.5C 2071.16,747.833 2047.82,747.5 2024.5,746.5C 2027.47,739.145 2028.97,731.478 2029,723.5C 2029.67,658.5 2029.67,593.5 2029,528.5C 2028.61,517.677 2025.61,507.677 2020,498.5C 2018.32,496.649 2016.48,494.982 2014.5,493.5C 2028.49,484.667 2043.49,478.334 2059.5,474.5 Z"/></g>
<g><path style="opacity:1" fill="#379b47" d="M 384.5,469.5 C 388.306,485.947 390.639,502.614 391.5,519.5C 386.316,523.26 380.65,526.26 374.5,528.5C 373.361,515.422 371.528,502.422 369,489.5C 368.617,490.056 368.117,490.389 367.5,490.5C 371.457,484.543 375.79,478.877 380.5,473.5C 381.906,473.027 382.573,472.027 382.5,470.5C 383.167,470.167 383.833,469.833 384.5,469.5 Z"/></g>
<g><path style="opacity:1" fill="#6ab246" d="M 285.5,476.5 C 285.433,484.632 284.433,492.632 282.5,500.5C 281.833,500.5 281.167,500.5 280.5,500.5C 276.11,490.052 271.443,479.719 266.5,469.5C 270.614,462.454 276.948,458.454 285.5,457.5C 285.5,463.833 285.5,470.167 285.5,476.5 Z"/></g>
<g><path style="opacity:1" fill="#67b245" d="M 329.5,508.5 C 325.153,512.845 320.486,516.845 315.5,520.5C 314.833,518.5 314.167,516.5 313.5,514.5C 312.614,507.543 312.28,500.543 312.5,493.5C 312.334,485.826 312.5,478.159 313,470.5C 321.7,481.764 327.2,494.431 329.5,508.5 Z"/></g>
<g><path style="opacity:1" fill="#68b345" d="M 254.5,486.5 C 260.556,496.615 265.556,507.282 269.5,518.5C 269.634,520.292 269.301,521.958 268.5,523.5C 261.749,527.531 254.415,530.197 246.5,531.5C 245.167,531.5 243.833,531.5 242.5,531.5C 243.115,517.707 245.948,504.373 251,491.5C 251.697,489.416 252.864,487.749 254.5,486.5 Z"/></g>
<g><path style="opacity:0.863" fill="#588654" d="M 364.5,493.5 C 364.573,495.027 363.906,496.027 362.5,496.5C 362.427,494.973 363.094,493.973 364.5,493.5 Z"/></g>
<g><path style="opacity:1" fill="#47a247" d="M 374.5,528.5 C 369.915,531.14 364.915,532.806 359.5,533.5C 360.546,523.398 359.712,513.398 357,503.5C 356.617,504.056 356.117,504.389 355.5,504.5C 357.094,501.236 359.427,498.569 362.5,496.5C 363.906,496.027 364.573,495.027 364.5,493.5C 365.167,492.167 366.167,491.167 367.5,490.5C 368.117,490.389 368.617,490.056 369,489.5C 371.528,502.422 373.361,515.422 374.5,528.5 Z"/></g>
<g><path style="opacity:0.529" fill="#6d8d5a" d="M 280.5,500.5 C 281.167,500.5 281.833,500.5 282.5,500.5C 281.833,503.167 281.167,503.167 280.5,500.5 Z"/></g>
<g><path style="opacity:1" fill="#4fa646" d="M 359.5,533.5 C 357.735,534.461 355.735,534.795 353.5,534.5C 352.817,527.159 351.984,519.826 351,512.5C 350.722,511.584 350.222,510.918 349.5,510.5C 351.167,508.167 353.167,506.167 355.5,504.5C 356.117,504.389 356.617,504.056 357,503.5C 359.712,513.398 360.546,523.398 359.5,533.5 Z"/></g>
<g><path style="opacity:0.996" fill="#5e994f" d="M 348.5,511.5 C 347.5,514.5 345.5,516.5 342.5,517.5C 344.167,515.167 346.167,513.167 348.5,511.5 Z"/></g>
<g><path style="opacity:1" fill="#5aab46" d="M 349.5,510.5 C 350.222,510.918 350.722,511.584 351,512.5C 351.984,519.826 352.817,527.159 353.5,534.5C 346.944,535.933 340.278,536.267 333.5,535.5C 331.958,534.837 330.291,534.17 328.5,533.5C 330.14,530.532 332.14,527.865 334.5,525.5C 336.833,522.5 339.5,519.833 342.5,517.5C 345.5,516.5 347.5,514.5 348.5,511.5C 348.5,510.833 348.833,510.5 349.5,510.5 Z"/></g>
<g><path style="opacity:0.731" fill="#6d9358" d="M 313.5,514.5 C 314.167,516.5 314.833,518.5 315.5,520.5C 315.44,521.043 315.107,521.376 314.5,521.5C 313.526,519.257 313.192,516.924 313.5,514.5 Z"/></g>
<g><path style="opacity:0.996" fill="#709c53" d="M 269.5,518.5 C 272.126,521.013 271.793,522.68 268.5,523.5C 269.301,521.958 269.634,520.292 269.5,518.5 Z"/></g>
<g><path style="opacity:1" fill="#69a14f" d="M 334.5,525.5 C 332.14,527.865 330.14,530.532 328.5,533.5C 330.291,534.17 331.958,534.837 333.5,535.5C 330.266,535.795 327.266,535.129 324.5,533.5C 327.583,530.406 330.916,527.739 334.5,525.5 Z"/></g>
<g><path style="opacity:0.341" fill="#638159" d="M 339.5,564.5 C 337.585,564.216 335.919,564.549 334.5,565.5C 333.957,565.44 333.624,565.107 333.5,564.5C 335.636,563.207 337.636,563.207 339.5,564.5 Z"/></g>
<g><path style="opacity:0.996" fill="#649253" d="M 334.5,565.5 C 337.089,566.419 339.089,568.086 340.5,570.5C 337.911,569.581 335.911,567.914 334.5,565.5 Z"/></g>
<g><path style="opacity:1" fill="#52a647" d="M 334.5,565.5 C 335.919,564.549 337.585,564.216 339.5,564.5C 346.826,564.129 353.826,565.129 360.5,567.5C 359.75,573.834 358.916,580.167 358,586.5C 357.329,587.252 356.496,587.586 355.5,587.5C 353.167,584.833 350.833,582.167 348.5,579.5C 348.5,577.5 347.5,576.5 345.5,576.5C 343.833,574.5 342.167,572.5 340.5,570.5C 339.089,568.086 337.089,566.419 334.5,565.5 Z"/></g>
<g><path style="opacity:1" fill="#5bae45" d="M 231.5,568.5 C 235.5,568.5 239.5,568.5 243.5,568.5C 245.068,581.371 248.568,593.704 254,605.5C 254.759,607.063 255.926,608.063 257.5,608.5C 255.072,613.693 252.405,618.693 249.5,623.5C 248.312,624.684 247.145,624.684 246,623.5C 237.221,606.044 232.388,587.71 231.5,568.5 Z"/></g>
<g><path style="opacity:1" fill="#53a945" d="M 231.5,568.5 C 232.388,587.71 237.221,606.044 246,623.5C 247.145,624.684 248.312,624.684 249.5,623.5C 246.588,630.332 242.921,636.666 238.5,642.5C 235.635,639.81 233.469,636.477 232,632.5C 223.971,613.079 218.805,592.912 216.5,572C 217.056,570.989 217.722,570.156 218.5,569.5C 222.768,568.627 227.102,568.294 231.5,568.5 Z"/></g>
<g><path style="opacity:1" fill="#69b246" d="M 243.5,568.5 C 252.989,568.403 262.322,569.57 271.5,572C 272.428,572.388 273.095,573.055 273.5,574C 268.836,585.826 263.503,597.326 257.5,608.5C 255.926,608.063 254.759,607.063 254,605.5C 248.568,593.704 245.068,581.371 243.5,568.5 Z"/></g>
<g><path style="opacity:1" fill="#45a147" d="M 360.5,567.5 C 364.784,568.261 368.784,569.595 372.5,571.5C 372.905,581.197 371.905,590.864 369.5,600.5C 369.253,601.713 368.586,602.38 367.5,602.5C 363.5,597.5 359.5,592.5 355.5,587.5C 356.496,587.586 357.329,587.252 358,586.5C 358.916,580.167 359.75,573.834 360.5,567.5 Z"/></g>
<g><path style="opacity:1" fill="#48a446" d="M 218.5,569.5 C 217.722,570.156 217.056,570.989 216.5,572C 218.805,592.912 223.971,613.079 232,632.5C 233.469,636.477 235.635,639.81 238.5,642.5C 237.921,645.331 236.588,647.664 234.5,649.5C 233.883,649.611 233.383,649.944 233,650.5C 220.162,625.133 212.995,598.466 211.5,570.5C 213.717,569.631 216.05,569.298 218.5,569.5 Z"/></g>
<g><path style="opacity:1" fill="#41a146" d="M 211.5,570.5 C 212.995,598.466 220.162,625.133 233,650.5C 233.383,649.944 233.883,649.611 234.5,649.5C 233,653.173 231,656.506 228.5,659.5C 225.973,657.49 224.139,654.823 223,651.5C 211.991,626.288 205.491,599.955 203.5,572.5C 204.791,572.737 205.791,572.404 206.5,571.5C 207.919,570.549 209.585,570.216 211.5,570.5 Z"/></g>
<g><path style="opacity:1" fill="#3c9c47" d="M 372.5,571.5 C 375.912,572.075 378.912,573.408 381.5,575.5C 381.64,587.38 380.306,599.214 377.5,611C 377.316,612.376 376.649,613.209 375.5,613.5C 372.865,609.857 370.199,606.19 367.5,602.5C 368.586,602.38 369.253,601.713 369.5,600.5C 371.905,590.864 372.905,581.197 372.5,571.5 Z"/></g>
<g><path style="opacity:1" fill="#399d47" d="M 206.5,571.5 C 205.791,572.404 204.791,572.737 203.5,572.5C 205.491,599.955 211.991,626.288 223,651.5C 224.139,654.823 225.973,657.49 228.5,659.5C 226.527,663.457 224.194,667.124 221.5,670.5C 220.624,670.631 219.957,670.298 219.5,669.5C 204.571,639.119 196.571,607.119 195.5,573.5C 199.042,572.325 202.709,571.659 206.5,571.5 Z"/></g>
<g><path style="opacity:0.812" fill="#6a8d58" d="M 322.5,575.5 C 321.5,575.5 320.5,575.5 319.5,575.5C 319.957,573.443 320.957,573.443 322.5,575.5 Z"/></g>
<g><path style="opacity:1" fill="#319947" d="M 195.5,573.5 C 196.571,607.119 204.571,639.119 219.5,669.5C 219.957,670.298 220.624,670.631 221.5,670.5C 219.555,674.736 216.888,678.403 213.5,681.5C 197.164,648.499 187.831,613.499 185.5,576.5C 188.55,574.899 191.884,573.899 195.5,573.5 Z"/></g>
<g><path style="opacity:0.965" fill="#5f8b54" d="M 345.5,576.5 C 347.5,576.5 348.5,577.5 348.5,579.5C 347.167,578.833 346.167,577.833 345.5,576.5 Z"/></g>
<g><path style="opacity:1" fill="#299647" d="M 185.5,576.5 C 187.831,613.499 197.164,648.499 213.5,681.5C 212.567,684.37 210.9,686.704 208.5,688.5C 207.624,688.631 206.957,688.298 206.5,687.5C 190.438,652.92 181.105,616.586 178.5,578.5C 180.515,577.076 182.848,576.41 185.5,576.5 Z"/></g>
<g><path style="opacity:1" fill="#329847" d="M 381.5,575.5 C 384.992,576.41 387.992,578.076 390.5,580.5C 389.99,595.245 387.823,609.912 384,624.5C 383.617,623.944 383.117,623.611 382.5,623.5C 380.179,620.204 377.846,616.871 375.5,613.5C 376.649,613.209 377.316,612.376 377.5,611C 380.306,599.214 381.64,587.38 381.5,575.5 Z"/></g>
<g><path style="opacity:1" fill="#239347" d="M 178.5,578.5 C 181.105,616.586 190.438,652.92 206.5,687.5C 206.957,688.298 207.624,688.631 208.5,688.5C 207.567,691.37 205.9,693.704 203.5,695.5C 202.883,695.611 202.383,695.944 202,696.5C 184.961,659.677 174.794,621.011 171.5,580.5C 173.701,579.434 176.035,578.767 178.5,578.5 Z"/></g>
<g><path style="opacity:1" fill="#1d9046" d="M 171.5,580.5 C 174.794,621.011 184.961,659.677 202,696.5C 202.383,695.944 202.883,695.611 203.5,695.5C 201.889,699.051 199.556,702.051 196.5,704.5C 178.828,666.154 168.162,625.821 164.5,583.5C 166.509,581.935 168.843,580.935 171.5,580.5 Z"/></g>
<g><path style="opacity:1" fill="#168d46" d="M 164.5,583.5 C 168.162,625.821 178.828,666.154 196.5,704.5C 194.878,707.455 192.878,710.122 190.5,712.5C 189.624,712.631 188.957,712.298 188.5,711.5C 170.792,671.668 160.125,630.002 156.5,586.5C 158.89,584.98 161.557,583.98 164.5,583.5 Z"/></g>
<g><path style="opacity:1" fill="#61af45" d="M 319.5,575.5 C 320.5,575.5 321.5,575.5 322.5,575.5C 327.86,580.194 332.86,585.194 337.5,590.5C 334.299,606.562 327.633,620.895 317.5,633.5C 317.5,621.833 317.5,610.167 317.5,598.5C 317.45,590.76 318.117,583.094 319.5,575.5 Z"/></g>
<g><path style="opacity:1" fill="#279347" d="M 390.5,580.5 C 395.478,582.991 400.145,585.991 404.5,589.5C 402.661,606.695 399.661,623.695 395.5,640.5C 395.253,641.713 394.586,642.38 393.5,642.5C 389.584,636.338 385.917,630.005 382.5,623.5C 383.117,623.611 383.617,623.944 384,624.5C 387.823,609.912 389.99,595.245 390.5,580.5 Z"/></g>
<g><path style="opacity:1" fill="#118946" d="M 156.5,586.5 C 160.125,630.002 170.792,671.668 188.5,711.5C 188.957,712.298 189.624,712.631 190.5,712.5C 188.183,716.146 185.516,719.48 182.5,722.5C 181.504,722.586 180.671,722.252 180,721.5C 161.484,679.76 150.651,636.094 147.5,590.5C 150.088,588.408 153.088,587.075 156.5,586.5 Z"/></g>
<g><path style="opacity:1" fill="#098445" d="M 147.5,590.5 C 150.651,636.094 161.484,679.76 180,721.5C 180.671,722.252 181.504,722.586 182.5,722.5C 179.29,726.921 175.623,730.921 171.5,734.5C 170.624,734.631 169.957,734.298 169.5,733.5C 150.295,689.351 139.295,643.351 136.5,595.5C 139.979,593.597 143.646,591.93 147.5,590.5 Z"/></g>
<g><path style="opacity:0.812" fill="#709757" d="M 285.5,594.5 C 284.833,594.167 284.167,593.833 283.5,593.5C 283.369,592.624 283.702,591.957 284.5,591.5C 285.386,592.325 285.719,593.325 285.5,594.5 Z"/></g>
<g><path style="opacity:0.965" fill="#608e54" d="M 341.5,594.5 C 342.906,594.973 343.573,595.973 343.5,597.5C 342.094,597.027 341.427,596.027 341.5,594.5 Z"/></g>
<g><path style="opacity:1" fill="#1b8d46" d="M 404.5,589.5 C 409.152,592.821 413.485,596.487 417.5,600.5C 416.459,622.549 412.626,644.215 406,665.5C 405.617,664.944 405.117,664.611 404.5,664.5C 400.325,657.484 396.659,650.151 393.5,642.5C 394.586,642.38 395.253,641.713 395.5,640.5C 399.661,623.695 402.661,606.695 404.5,589.5 Z"/></g>
<g><path style="opacity:1" fill="#55ab45" d="M 337.5,590.5 C 339.167,591.5 340.5,592.833 341.5,594.5C 341.427,596.027 342.094,597.027 343.5,597.5C 344.5,597.833 345.167,598.5 345.5,599.5C 345.539,600.583 345.873,601.583 346.5,602.5C 341.162,622.515 331.662,640.182 318,655.5C 317.5,648.174 317.334,640.841 317.5,633.5C 327.633,620.895 334.299,606.562 337.5,590.5 Z"/></g>
<g><path style="opacity:1" fill="#027e44" d="M 136.5,595.5 C 139.295,643.351 150.295,689.351 169.5,733.5C 169.957,734.298 170.624,734.631 171.5,734.5C 168.858,738.775 165.525,742.442 161.5,745.5C 160.624,745.631 159.957,745.298 159.5,744.5C 139.8,698.705 128.466,651.038 125.5,601.5C 128.999,599.25 132.665,597.25 136.5,595.5 Z"/></g>
<g><path style="opacity:1" fill="#017943" d="M 125.5,601.5 C 128.466,651.038 139.8,698.705 159.5,744.5C 159.957,745.298 160.624,745.631 161.5,745.5C 158.167,749.5 154.5,753.167 150.5,756.5C 149.325,756.719 148.325,756.386 147.5,755.5C 128.84,709.376 116.84,661.543 111.5,612C 111.978,610.697 112.645,609.531 113.5,608.5C 117.164,605.665 121.164,603.332 125.5,601.5 Z"/></g>
<g><path style="opacity:1" fill="#128846" d="M 417.5,600.5 C 421.167,603.5 424.5,606.833 427.5,610.5C 424.988,633.224 420.488,655.557 414,677.5C 413.764,679.119 412.931,680.119 411.5,680.5C 408.655,675.469 406.322,670.136 404.5,664.5C 405.117,664.611 405.617,664.944 406,665.5C 412.626,644.215 416.459,622.549 417.5,600.5 Z"/></g>
<g><path style="opacity:1" fill="#007342" d="M 113.5,608.5 C 112.645,609.531 111.978,610.697 111.5,612C 116.84,661.543 128.84,709.376 147.5,755.5C 148.325,756.386 149.325,756.719 150.5,756.5C 146.921,760.623 142.921,764.29 138.5,767.5C 137.504,767.586 136.671,767.252 136,766.5C 116.773,718.593 104.607,668.926 99.5,617.5C 103.624,613.719 108.291,610.719 113.5,608.5 Z"/></g>
<g><path style="opacity:1" fill="#4ba447" d="M 317.5,598.5 C 317.5,610.167 317.5,621.833 317.5,633.5C 317.334,640.841 317.5,648.174 318,655.5C 331.662,640.182 341.162,622.515 346.5,602.5C 345.873,601.583 345.539,600.583 345.5,599.5C 349.238,602.91 352.238,606.91 354.5,611.5C 354.427,613.027 355.094,614.027 356.5,614.5C 356.539,615.583 356.873,616.583 357.5,617.5C 350.332,643.54 337.332,665.873 318.5,684.5C 316.996,667.526 316.33,650.359 316.5,633C 316.5,621.328 316.833,609.828 317.5,598.5 Z"/></g>
<g><path style="opacity:1" fill="#69b047" d="M 283.5,593.5 C 284.167,593.833 284.833,594.167 285.5,594.5C 288.352,605.282 290.019,616.282 290.5,627.5C 289.596,626.791 289.263,625.791 289.5,624.5C 284.029,624.509 279.029,623.009 274.5,620C 275.167,619.667 275.833,619.333 276.5,619C 274.963,617.89 274.297,616.39 274.5,614.5C 277.264,607.316 280.264,600.316 283.5,593.5 Z"/></g>
<g><path style="opacity:0.906" fill="#588b52" d="M 354.5,611.5 C 355.906,611.973 356.573,612.973 356.5,614.5C 355.094,614.027 354.427,613.027 354.5,611.5 Z"/></g>
<g><path style="opacity:1" fill="#006d41" d="M 99.5,617.5 C 104.607,668.926 116.773,718.593 136,766.5C 136.671,767.252 137.504,767.586 138.5,767.5C 134.485,771.513 130.152,775.179 125.5,778.5C 114.71,753.044 106.21,726.71 100,699.5C 94.3478,675.074 90.1811,650.407 87.5,625.5C 91.1477,622.34 95.1477,619.673 99.5,617.5 Z"/></g>
<g><path style="opacity:1" fill="#0a8345" d="M 427.5,610.5 C 431.592,614.258 434.926,618.591 437.5,623.5C 434.733,649.59 429.233,675.257 421,700.5C 420.617,701.056 420.117,701.389 419.5,701.5C 416.462,694.731 413.796,687.731 411.5,680.5C 412.931,680.119 413.764,679.119 414,677.5C 420.488,655.557 424.988,633.224 427.5,610.5 Z"/></g>
<g><path style="opacity:1" fill="#41a146" d="M 356.5,614.5 C 358.326,616.147 359.66,618.147 360.5,620.5C 360.427,622.027 361.094,623.027 362.5,623.5C 362.557,624.609 362.89,625.609 363.5,626.5C 357.625,647.918 347.792,667.251 334,684.5C 329.594,689.411 324.76,693.745 319.5,697.5C 318.627,693.232 318.294,688.898 318.5,684.5C 337.332,665.873 350.332,643.54 357.5,617.5C 356.873,616.583 356.539,615.583 356.5,614.5 Z"/></g>
<g><path style="opacity:0.906" fill="#548952" d="M 360.5,620.5 C 361.906,620.973 362.573,621.973 362.5,623.5C 361.094,623.027 360.427,622.027 360.5,620.5 Z"/></g>
<g><path style="opacity:0.753" fill="#558354" d="M 362.5,623.5 C 363.906,623.973 364.573,624.973 364.5,626.5C 364.167,626.5 363.833,626.5 363.5,626.5C 362.89,625.609 362.557,624.609 362.5,623.5 Z"/></g>
<g><path style="opacity:1" fill="#00673f" d="M 87.5,625.5 C 90.1811,650.407 94.3478,675.074 100,699.5C 106.21,726.71 114.71,753.044 125.5,778.5C 124.109,780.89 122.109,782.557 119.5,783.5C 117.692,783.509 116.025,783.009 114.5,782C 114.833,781.667 115.167,781.333 115.5,781C 114.5,779.333 113.5,777.667 112.5,776C 113.634,774.984 113.301,774.317 111.5,774C 112.458,772.853 112.125,771.853 110.5,771C 110.833,770.667 111.167,770.333 111.5,770C 109.833,766.333 108.167,762.667 106.5,759C 107.458,757.853 107.125,756.853 105.5,756C 105.833,755.667 106.167,755.333 106.5,755C 105.5,753.333 104.5,751.667 103.5,750C 104.458,748.853 104.125,747.853 102.5,747C 102.112,745.475 102.112,743.808 102.5,742C 101.5,740.333 100.5,738.667 99.5,737C 99.9574,736.586 100.291,736.086 100.5,735.5C 99.3578,733.622 98.3578,731.788 97.5,730C 97.9574,729.586 98.2907,729.086 98.5,728.5C 97.1667,725.167 95.8333,721.833 94.5,718.5C 94.3062,716.737 94.3062,714.903 94.5,713C 92.6063,711.921 92.273,710.587 93.5,709C 92.5989,706.529 91.5989,704.029 90.5,701.5C 90.5,699.5 90.5,697.5 90.5,695.5C 88.7299,694.18 88.3966,692.68 89.5,691C 88.0371,686.564 86.7037,682.064 85.5,677.5C 85.8333,676.833 86.1667,676.167 86.5,675.5C 85.2936,672.44 84.2936,669.44 83.5,666.5C 84.4845,664.402 84.1511,662.402 82.5,660.5C 83.6868,658.025 83.3535,655.691 81.5,653.5C 81.8333,652.833 82.1667,652.167 82.5,651.5C 81.5,647.5 80.5,643.5 79.5,639.5C 80.7357,637.689 80.7357,635.856 79.5,634C 79.9783,632.697 80.645,631.531 81.5,630.5C 82.8908,628.11 84.8908,626.443 87.5,625.5 Z"/></g>
<g><path style="opacity:1" fill="#61af45" d="M 274.5,614.5 C 274.297,616.39 274.963,617.89 276.5,619C 275.833,619.333 275.167,619.667 274.5,620C 279.029,623.009 284.029,624.509 289.5,624.5C 289.263,625.791 289.596,626.791 290.5,627.5C 290.5,628.5 290.5,629.5 290.5,630.5C 290.5,635.5 290.5,640.5 290.5,645.5C 286.088,645.098 281.754,644.265 277.5,643C 273.003,640.644 268.67,638.144 264.5,635.5C 267.597,628.309 270.93,621.309 274.5,614.5 Z"/></g>
<g><path style="opacity:1" fill="#047e44" d="M 437.5,623.5 C 441.844,628.847 445.177,634.847 447.5,641.5C 443.334,669.165 436.5,696.165 427,722.5C 426.722,721.584 426.222,720.918 425.5,720.5C 423.102,714.304 421.102,707.971 419.5,701.5C 420.117,701.389 420.617,701.056 421,700.5C 429.233,675.257 434.733,649.59 437.5,623.5 Z"/></g>
<g><path style="opacity:1" fill="#00603d" d="M 81.5,630.5 C 80.645,631.531 79.9783,632.697 79.5,634C 80.7357,635.856 80.7357,637.689 79.5,639.5C 80.5,643.5 81.5,647.5 82.5,651.5C 82.1667,652.167 81.8333,652.833 81.5,653.5C 83.3535,655.691 83.6868,658.025 82.5,660.5C 84.1511,662.402 84.4845,664.402 83.5,666.5C 84.2936,669.44 85.2936,672.44 86.5,675.5C 86.1667,676.167 85.8333,676.833 85.5,677.5C 86.7037,682.064 88.0371,686.564 89.5,691C 88.3966,692.68 88.7299,694.18 90.5,695.5C 90.5,697.5 90.5,699.5 90.5,701.5C 91.5989,704.029 92.5989,706.529 93.5,709C 92.273,710.587 92.6063,711.921 94.5,713C 94.3062,714.903 94.3062,716.737 94.5,718.5C 95.8333,721.833 97.1667,725.167 98.5,728.5C 98.2907,729.086 97.9574,729.586 97.5,730C 98.3578,731.788 99.3578,733.622 100.5,735.5C 100.291,736.086 99.9574,736.586 99.5,737C 100.5,738.667 101.5,740.333 102.5,742C 102.112,743.808 102.112,745.475 102.5,747C 104.125,747.853 104.458,748.853 103.5,750C 104.5,751.667 105.5,753.333 106.5,755C 106.167,755.333 105.833,755.667 105.5,756C 107.125,756.853 107.458,757.853 106.5,759C 108.167,762.667 109.833,766.333 111.5,770C 111.167,770.333 110.833,770.667 110.5,771C 112.125,771.853 112.458,772.853 111.5,774C 113.301,774.317 113.634,774.984 112.5,776C 113.5,777.667 114.5,779.333 115.5,781C 115.167,781.333 114.833,781.667 114.5,782C 116.025,783.009 117.692,783.509 119.5,783.5C 117.122,785.878 114.455,787.878 111.5,789.5C 92.2769,740.271 80.1102,689.271 75,636.5C 75.7172,635.956 76.2172,635.289 76.5,634.5C 77.5846,632.413 79.2512,631.08 81.5,630.5 Z"/></g>
<g><path style="opacity:1" fill="#399d47" d="M 363.5,626.5 C 363.833,626.5 364.167,626.5 364.5,626.5C 366.588,628.336 367.921,630.669 368.5,633.5C 368.427,635.027 369.094,636.027 370.5,636.5C 362.74,666.715 347.406,692.215 324.5,713C 323.552,713.483 322.552,713.649 321.5,713.5C 320.368,708.24 319.701,702.907 319.5,697.5C 324.76,693.745 329.594,689.411 334,684.5C 347.792,667.251 357.625,647.918 363.5,626.5 Z"/></g>
<g><path style="opacity:0.753" fill="#518153" d="M 368.5,633.5 C 369.906,633.973 370.573,634.973 370.5,636.5C 369.094,636.027 368.427,635.027 368.5,633.5 Z"/></g>
<g><path style="opacity:1" fill="#005a3c" d="M 76.5,634.5 C 76.2172,635.289 75.7172,635.956 75,636.5C 80.1102,689.271 92.2769,740.271 111.5,789.5C 110.738,791.262 109.404,792.262 107.5,792.5C 106.25,792.423 105.417,791.756 105,790.5C 86.8727,741.991 75.0394,691.991 69.5,640.5C 71.2393,637.757 73.5726,635.757 76.5,634.5 Z"/></g>
<g><path style="opacity:1" fill="#00543a" d="M 69.5,640.5 C 75.0394,691.991 86.8727,741.991 105,790.5C 105.417,791.756 106.25,792.423 107.5,792.5C 105.853,794.326 103.853,795.66 101.5,796.5C 96.8213,786.985 92.988,776.985 90,766.5C 77.5385,726.989 69.0385,686.656 64.5,645.5C 65.8333,643.5 67.5,641.833 69.5,640.5 Z"/></g>
<g><path style="opacity:1" fill="#319947" d="M 370.5,636.5 C 373.227,640.577 375.561,644.91 377.5,649.5C 370.091,673.991 358.258,695.991 342,715.5C 337.138,721.544 331.305,726.211 324.5,729.5C 322.992,724.292 321.992,718.959 321.5,713.5C 322.552,713.649 323.552,713.483 324.5,713C 347.406,692.215 362.74,666.715 370.5,636.5 Z"/></g>
<g><path style="opacity:1" fill="#56ab45" d="M 264.5,635.5 C 268.67,638.144 273.003,640.644 277.5,643C 281.754,644.265 286.088,645.098 290.5,645.5C 290.5,653.167 290.5,660.833 290.5,668.5C 277.32,667.993 266.153,662.993 257,653.5C 256.517,652.552 256.351,651.552 256.5,650.5C 257.906,650.027 258.573,649.027 258.5,647.5C 259.992,643.182 261.992,639.182 264.5,635.5 Z"/></g>
<g><path style="opacity:1" fill="#087843" d="M 447.5,641.5 C 454.519,659.398 455.352,677.732 450,696.5C 445.417,710.336 438.75,723.003 430,734.5C 427.888,730.061 426.388,725.394 425.5,720.5C 426.222,720.918 426.722,721.584 427,722.5C 436.5,696.165 443.334,669.165 447.5,641.5 Z"/></g>
<g><path style="opacity:1" fill="#004d37" d="M 64.5,645.5 C 69.0385,686.656 77.5385,726.989 90,766.5C 92.988,776.985 96.8213,786.985 101.5,796.5C 98.7858,799.934 95.7858,800.267 92.5,797.5C 75.4997,750.165 64.1664,701.498 58.5,651.5C 60.1667,649.167 62.1667,647.167 64.5,645.5 Z"/></g>
<g><path style="opacity:0.753" fill="#5f8a55" d="M 258.5,647.5 C 258.573,649.027 257.906,650.027 256.5,650.5C 256.427,648.973 257.094,647.973 258.5,647.5 Z"/></g>
<g><path style="opacity:1" fill="#299647" d="M 377.5,649.5 C 379.674,652.515 381.341,655.849 382.5,659.5C 373.154,688.709 357.82,714.209 336.5,736C 333.861,738.483 330.861,740.316 327.5,741.5C 325.996,737.652 324.996,733.652 324.5,729.5C 331.305,726.211 337.138,721.544 342,715.5C 358.258,695.991 370.091,673.991 377.5,649.5 Z"/></g>
<g><path style="opacity:1" fill="#014735" d="M 58.5,651.5 C 64.1664,701.498 75.4997,750.165 92.5,797.5C 88.827,796 85.4937,794 82.5,791.5C 69.2543,748.776 59.2543,705.276 52.5,661C 52.9891,659.862 53.3225,658.695 53.5,657.5C 54.4431,654.891 56.1097,652.891 58.5,651.5 Z"/></g>
<g><path style="opacity:1" fill="#4fa547" d="M 290.5,630.5 C 291.166,637.325 291.5,644.325 291.5,651.5C 291.644,662.704 290.977,673.704 289.5,684.5C 278.166,682.846 267.832,678.346 258.5,671C 255.223,668.234 252.557,665.067 250.5,661.5C 252.25,657.665 254.25,653.999 256.5,650.5C 256.351,651.552 256.517,652.552 257,653.5C 266.153,662.993 277.32,667.993 290.5,668.5C 290.5,660.833 290.5,653.167 290.5,645.5C 290.5,640.5 290.5,635.5 290.5,630.5 Z"/></g>
<g><path style="opacity:1" fill="#024132" d="M 53.5,657.5 C 53.3225,658.695 52.9891,659.862 52.5,661C 59.2543,705.276 69.2543,748.776 82.5,791.5C 79.883,790.214 77.5496,788.547 75.5,786.5C 62.8587,746.935 53.5254,706.601 47.5,665.5C 49.0252,662.437 51.0252,659.77 53.5,657.5 Z"/></g>
<g><path style="opacity:1" fill="#239347" d="M 382.5,659.5 C 384.625,662.088 385.958,665.088 386.5,668.5C 377.386,699.769 361.053,726.602 337.5,749C 335.695,749.972 334.028,751.139 332.5,752.5C 331.818,751.757 331.151,751.091 330.5,750.5C 328.928,747.785 327.928,744.785 327.5,741.5C 330.861,740.316 333.861,738.483 336.5,736C 357.82,714.209 373.154,688.709 382.5,659.5 Z"/></g>
<g><path style="opacity:1" fill="#48a446" d="M 250.5,661.5 C 252.557,665.067 255.223,668.234 258.5,671C 267.832,678.346 278.166,682.846 289.5,684.5C 289.81,687.713 289.477,690.713 288.5,693.5C 271.593,692.128 257.759,684.795 247,671.5C 246.517,670.552 246.351,669.552 246.5,668.5C 247.584,665.996 248.917,663.663 250.5,661.5 Z"/></g>
<g><path style="opacity:1" fill="#013b2e" d="M 47.5,665.5 C 53.5254,706.601 62.8587,746.935 75.5,786.5C 72.4669,784.984 69.8003,782.984 67.5,780.5C 56.7619,744.476 49.0952,707.809 44.5,670.5C 45.1103,668.566 46.1103,666.899 47.5,665.5 Z"/></g>
<g><path style="opacity:1" fill="#1d9046" d="M 386.5,668.5 C 388.951,671.74 390.618,675.407 391.5,679.5C 381.096,712.668 362.929,740.668 337,763.5C 336.617,762.944 336.117,762.611 335.5,762.5C 333.069,758.889 331.403,754.889 330.5,750.5C 331.151,751.091 331.818,751.757 332.5,752.5C 334.028,751.139 335.695,749.972 337.5,749C 361.053,726.602 377.386,699.769 386.5,668.5 Z"/></g>
<g><path style="opacity:1" fill="#01342a" d="M 44.5,670.5 C 49.0952,707.809 56.7619,744.476 67.5,780.5C 63.8797,778.547 60.8797,775.881 58.5,772.5C 49.989,741.945 43.6556,710.945 39.5,679.5C 40.4097,676.008 42.0764,673.008 44.5,670.5 Z"/></g>
<g><path style="opacity:0.753" fill="#548253" d="M 240.5,678.5 C 240.573,680.027 239.906,681.027 238.5,681.5C 238.427,679.973 239.094,678.973 240.5,678.5 Z"/></g>
<g><path style="opacity:1" fill="#3e9f46" d="M 246.5,668.5 C 246.351,669.552 246.517,670.552 247,671.5C 257.759,684.795 271.593,692.128 288.5,693.5C 288.082,702.108 286.749,710.442 284.5,718.5C 264.666,714.833 248.833,704.833 237,688.5C 236.51,687.207 236.343,685.873 236.5,684.5C 236.932,683.29 237.599,682.29 238.5,681.5C 239.906,681.027 240.573,680.027 240.5,678.5C 242,674.827 244,671.494 246.5,668.5 Z"/></g>
<g><path style="opacity:1" fill="#178d46" d="M 391.5,679.5 C 393.679,683.203 395.345,687.203 396.5,691.5C 386.49,723.359 369.49,750.859 345.5,774C 344.181,774.195 342.847,774.028 341.5,773.5C 338.726,770.287 336.726,766.62 335.5,762.5C 336.117,762.611 336.617,762.944 337,763.5C 362.929,740.668 381.096,712.668 391.5,679.5 Z"/></g>
<g><path style="opacity:1" fill="#369c47" d="M 236.5,684.5 C 236.343,685.873 236.51,687.207 237,688.5C 248.833,704.833 264.666,714.833 284.5,718.5C 284.341,722.291 283.675,725.958 282.5,729.5C 281.739,730.391 280.739,731.058 279.5,731.5C 258.23,726.049 241.897,714.049 230.5,695.5C 231.11,694.609 231.443,693.609 231.5,692.5C 232.906,692.027 233.573,691.027 233.5,689.5C 234.11,687.566 235.11,685.899 236.5,684.5 Z"/></g>
<g><path style="opacity:1" fill="#042d25" d="M 39.5,679.5 C 43.6556,710.945 49.989,741.945 58.5,772.5C 55.7052,770.249 53.3719,767.582 51.5,764.5C 43.8021,740.037 38.4688,715.037 35.5,689.5C 36.2635,685.863 37.5968,682.53 39.5,679.5 Z"/></g>
<g><path style="opacity:0.812" fill="#508153" d="M 233.5,689.5 C 233.573,691.027 232.906,692.027 231.5,692.5C 231.427,690.973 232.094,689.973 233.5,689.5 Z"/></g>
<g><path style="opacity:1" fill="#082620" d="M 35.5,689.5 C 38.4688,715.037 43.8021,740.037 51.5,764.5C 32.393,742.409 27.0597,717.409 35.5,689.5 Z"/></g>
<g><path style="opacity:0.812" fill="#4f8053" d="M 231.5,692.5 C 231.443,693.609 231.11,694.609 230.5,695.5C 230.167,695.5 229.833,695.5 229.5,695.5C 229.427,693.973 230.094,692.973 231.5,692.5 Z"/></g>
<g><path style="opacity:1" fill="#2f9947" d="M 229.5,695.5 C 229.833,695.5 230.167,695.5 230.5,695.5C 241.897,714.049 258.23,726.049 279.5,731.5C 280.739,731.058 281.739,730.391 282.5,729.5C 282.102,733.761 281.102,737.761 279.5,741.5C 256.123,735.46 238.123,722.126 225.5,701.5C 226.906,701.027 227.573,700.027 227.5,698.5C 228.906,698.027 229.573,697.027 229.5,695.5 Z"/></g>
<g><path style="opacity:0.812" fill="#4d8052" d="M 229.5,695.5 C 229.573,697.027 228.906,698.027 227.5,698.5C 227.427,696.973 228.094,695.973 229.5,695.5 Z"/></g>
<g><path style="opacity:0.863" fill="#4b8052" d="M 227.5,698.5 C 227.573,700.027 226.906,701.027 225.5,701.5C 225.427,699.973 226.094,698.973 227.5,698.5 Z"/></g>
<g><path style="opacity:1" fill="#299647" d="M 225.5,701.5 C 238.123,722.126 256.123,735.46 279.5,741.5C 278.967,745.965 277.967,750.298 276.5,754.5C 252.142,746.998 233.475,732.331 220.5,710.5C 220.5,709.833 220.5,709.167 220.5,708.5C 221.811,705.865 223.478,703.531 225.5,701.5 Z"/></g>
<g><path style="opacity:1" fill="#118846" d="M 396.5,691.5 C 399.071,696.537 401.071,701.871 402.5,707.5C 392.528,737.118 376.695,763.118 355,785.5C 354.329,784.748 353.496,784.414 352.5,784.5C 347.833,781.833 344.167,778.167 341.5,773.5C 342.847,774.028 344.181,774.195 345.5,774C 369.49,750.859 386.49,723.359 396.5,691.5 Z"/></g>
<g><path style="opacity:0.863" fill="#477d51" d="M 220.5,708.5 C 220.5,709.167 220.5,709.833 220.5,710.5C 219.833,710.833 219.167,711.167 218.5,711.5C 218.427,709.973 219.094,708.973 220.5,708.5 Z"/></g>
<g><path style="opacity:1" fill="#239347" d="M 220.5,710.5 C 233.475,732.331 252.142,746.998 276.5,754.5C 275.807,757.941 274.807,761.275 273.5,764.5C 272.778,764.918 272.278,765.584 272,766.5C 247.272,757.282 228.106,741.282 214.5,718.5C 215.127,717.583 215.461,716.583 215.5,715.5C 216.026,713.77 217.026,712.436 218.5,711.5C 219.167,711.167 219.833,710.833 220.5,710.5 Z"/></g>
<g><path style="opacity:1" fill="#0b8445" d="M 402.5,707.5 C 405.64,714.141 407.974,721.141 409.5,728.5C 401.169,751.136 389.502,771.803 374.5,790.5C 372.604,791.466 370.604,791.799 368.5,791.5C 362.22,791.082 356.887,788.749 352.5,784.5C 353.496,784.414 354.329,784.748 355,785.5C 376.695,763.118 392.528,737.118 402.5,707.5 Z"/></g>
<g><path style="opacity:1" fill="#1d9046" d="M 215.5,715.5 C 215.461,716.583 215.127,717.583 214.5,718.5C 228.106,741.282 247.272,757.282 272,766.5C 272.278,765.584 272.778,764.918 273.5,764.5C 272.565,768.969 271.232,773.303 269.5,777.5C 268.883,777.611 268.383,777.944 268,778.5C 242.458,767.797 222.625,750.464 208.5,726.5C 209.127,725.583 209.461,724.583 209.5,723.5C 211.147,720.527 213.147,717.86 215.5,715.5 Z"/></g>
<g><path style="opacity:1" fill="#178d46" d="M 209.5,723.5 C 209.461,724.583 209.127,725.583 208.5,726.5C 222.625,750.464 242.458,767.797 268,778.5C 268.383,777.944 268.883,777.611 269.5,777.5C 268.029,782.579 266.363,787.579 264.5,792.5C 247.102,785.949 232.268,775.615 220,761.5C 213.251,753.25 207.084,744.584 201.5,735.5C 202.127,734.583 202.461,733.583 202.5,732.5C 204.482,729.19 206.815,726.19 209.5,723.5 Z"/></g>
<g><path style="opacity:1" fill="#067d44" d="M 409.5,728.5 C 412.43,735.526 414.764,742.859 416.5,750.5C 416.315,751.584 415.982,752.584 415.5,753.5C 410.36,762.437 405.194,771.437 400,780.5C 398.991,782.025 398.491,783.692 398.5,785.5C 395.288,788.942 391.288,791.109 386.5,792C 380.319,792.819 374.319,792.653 368.5,791.5C 370.604,791.799 372.604,791.466 374.5,790.5C 389.502,771.803 401.169,751.136 409.5,728.5 Z"/></g>
<g><path style="opacity:1" fill="#118846" d="M 202.5,732.5 C 202.461,733.583 202.127,734.583 201.5,735.5C 207.084,744.584 213.251,753.25 220,761.5C 232.268,775.615 247.102,785.949 264.5,792.5C 262.871,797.735 260.871,802.735 258.5,807.5C 254.95,808.265 251.617,807.431 248.5,805C 224.686,790.187 206.02,770.52 192.5,746C 193.252,745.329 193.586,744.496 193.5,743.5C 196.152,739.518 199.152,735.851 202.5,732.5 Z"/></g>
<g><path style="opacity:1" fill="#0b8445" d="M 193.5,743.5 C 193.586,744.496 193.252,745.329 192.5,746C 206.02,770.52 224.686,790.187 248.5,805C 251.617,807.431 254.95,808.265 258.5,807.5C 257.012,812.467 255.012,817.134 252.5,821.5C 235.889,813.078 221.389,801.745 209,787.5C 200.379,777.093 192.879,765.926 186.5,754C 186.989,752.862 187.322,751.695 187.5,750.5C 189.273,747.94 191.273,745.607 193.5,743.5 Z"/></g>
<g><path style="opacity:1" fill="#157646" d="M 415.5,753.5 C 413.852,765.628 408.852,776.128 400.5,785C 399.906,785.464 399.239,785.631 398.5,785.5C 398.491,783.692 398.991,782.025 400,780.5C 405.194,771.437 410.36,762.437 415.5,753.5 Z"/></g>
<g><path style="opacity:1" fill="#037f44" d="M 187.5,750.5 C 187.322,751.695 186.989,752.862 186.5,754C 192.879,765.926 200.379,777.093 209,787.5C 221.389,801.745 235.889,813.078 252.5,821.5C 248.62,829.699 243.953,837.365 238.5,844.5C 231.539,841.348 225.206,837.182 219.5,832C 199.473,813.732 183.473,792.565 171.5,768.5C 171.833,767.5 172.5,766.833 173.5,766.5C 175.587,765.415 176.92,763.749 177.5,761.5C 180.862,757.808 184.195,754.141 187.5,750.5 Z"/></g>
<g><path style="opacity:0.965" fill="#266d4b" d="M 177.5,761.5 C 176.92,763.749 175.587,765.415 173.5,766.5C 174.08,764.251 175.413,762.585 177.5,761.5 Z"/></g>
<g><path style="opacity:1" fill="#017943" d="M 171.5,768.5 C 183.473,792.565 199.473,813.732 219.5,832C 225.206,837.182 231.539,841.348 238.5,844.5C 236.515,848.456 234.015,852.122 231,855.5C 228.963,857.706 226.797,859.706 224.5,861.5C 211.969,852.809 200.803,842.476 191,830.5C 178.668,814.998 168.168,798.332 159.5,780.5C 163.167,776.167 167.167,772.167 171.5,768.5 Z"/></g>
<g><path style="opacity:1" fill="#017342" d="M 159.5,780.5 C 168.168,798.332 178.668,814.998 191,830.5C 200.803,842.476 211.969,852.809 224.5,861.5C 220.275,867.269 214.942,871.602 208.5,874.5C 195.109,863.942 183.609,851.609 174,837.5C 164.285,823.245 155.452,808.412 147.5,793C 148.71,791.961 149.71,790.794 150.5,789.5C 153.167,786.167 156.167,783.167 159.5,780.5 Z"/></g>
<g><path style="opacity:1" fill="#006d41" d="M 150.5,789.5 C 149.71,790.794 148.71,791.961 147.5,793C 155.452,808.412 164.285,823.245 174,837.5C 183.609,851.609 195.109,863.942 208.5,874.5C 203.281,878.773 197.281,881.44 190.5,882.5C 189.448,882.649 188.448,882.483 187.5,882C 166.446,858.581 149.112,832.581 135.5,804C 137.041,802.629 138.375,801.129 139.5,799.5C 142.563,795.434 146.229,792.101 150.5,789.5 Z"/></g>
<g><path style="opacity:1" fill="#00673f" d="M 139.5,799.5 C 138.375,801.129 137.041,802.629 135.5,804C 149.112,832.581 166.446,858.581 187.5,882C 188.448,882.483 189.448,882.649 190.5,882.5C 189.432,883.434 188.099,883.768 186.5,883.5C 181.821,883.666 177.155,883.499 172.5,883C 170.651,881.907 168.984,880.574 167.5,879C 167.833,878.667 168.167,878.333 168.5,878C 166.167,875.667 163.833,873.333 161.5,871C 161.833,870.667 162.167,870.333 162.5,870C 160.321,869.558 159.655,868.558 160.5,867C 159.672,866.085 158.672,865.419 157.5,865C 158.345,863.442 157.679,862.442 155.5,862C 156.345,860.442 155.679,859.442 153.5,859C 154.345,857.442 153.679,856.442 151.5,856C 152.345,854.442 151.679,853.442 149.5,853C 149.833,852.667 150.167,852.333 150.5,852C 148.167,849 145.833,846 143.5,843C 144.634,841.984 144.301,841.317 142.5,841C 142.833,840.667 143.167,840.333 143.5,840C 142.167,838.667 140.833,837.333 139.5,836C 140.634,834.984 140.301,834.317 138.5,834C 139.634,832.984 139.301,832.317 137.5,832C 135.623,826.408 132.623,820.408 128.5,814C 129.634,812.984 129.301,812.317 127.5,812C 128.337,810.989 128.67,809.822 128.5,808.5C 131.871,805.129 135.537,802.129 139.5,799.5 Z"/></g>
<g><path style="opacity:1" fill="#01603d" d="M 128.5,808.5 C 128.67,809.822 128.337,810.989 127.5,812C 129.301,812.317 129.634,812.984 128.5,814C 132.623,820.408 135.623,826.408 137.5,832C 139.301,832.317 139.634,832.984 138.5,834C 140.301,834.317 140.634,834.984 139.5,836C 140.833,837.333 142.167,838.667 143.5,840C 143.167,840.333 142.833,840.667 142.5,841C 144.301,841.317 144.634,841.984 143.5,843C 145.833,846 148.167,849 150.5,852C 150.167,852.333 149.833,852.667 149.5,853C 151.679,853.442 152.345,854.442 151.5,856C 153.679,856.442 154.345,857.442 153.5,859C 155.679,859.442 156.345,860.442 155.5,862C 157.679,862.442 158.345,863.442 157.5,865C 158.672,865.419 159.672,866.085 160.5,867C 159.655,868.558 160.321,869.558 162.5,870C 162.167,870.333 161.833,870.667 161.5,871C 163.833,873.333 166.167,875.667 168.5,878C 168.167,878.333 167.833,878.667 167.5,879C 168.984,880.574 170.651,881.907 172.5,883C 177.155,883.499 181.821,883.666 186.5,883.5C 176.953,885.385 167.62,884.385 158.5,880.5C 151.022,868.222 143.522,855.889 136,843.5C 131.294,833.922 126.461,824.422 121.5,815C 122.056,814.617 122.389,814.117 122.5,813.5C 124.091,811.367 126.091,809.701 128.5,808.5 Z"/></g>
<g><path style="opacity:1" fill="#015a3c" d="M 122.5,813.5 C 122.389,814.117 122.056,814.617 121.5,815C 126.461,824.422 131.294,833.922 136,843.5C 143.522,855.889 151.022,868.222 158.5,880.5C 152.463,877.818 147.129,874.151 142.5,869.5C 133.206,853.08 124.539,836.247 116.5,819C 117.056,818.617 117.389,818.117 117.5,817.5C 118.585,815.413 120.251,814.08 122.5,813.5 Z"/></g>
<g><path style="opacity:0.999" fill="#0d533b" d="M 117.5,817.5 C 117.389,818.117 117.056,818.617 116.5,819C 124.539,836.247 133.206,853.08 142.5,869.5C 129.208,855.435 119.875,838.935 114.5,820C 114.748,818.251 115.748,817.418 117.5,817.5 Z"/></g>
<g><path style="opacity:0.97" fill="#193768" d="M 2938.5,882.5 C 2941.17,882.5 2943.83,882.5 2946.5,882.5C 2946.33,917.168 2946.5,951.835 2947,986.5C 2962.17,969.333 2977.33,952.167 2992.5,935C 3003.83,934.333 3015.17,934.333 3026.5,935C 3012.65,950.017 2998.98,965.184 2985.5,980.5C 3000.17,1006.17 3014.83,1031.83 3029.5,1057.5C 3020.46,1059.87 3011.29,1061.87 3002,1063.5C 3001.5,1063.17 3001,1062.83 3000.5,1062.5C 2989.07,1042.63 2977.4,1022.97 2965.5,1003.5C 2959.18,1009.99 2953.01,1016.66 2947,1023.5C 2946.5,1035.83 2946.33,1048.16 2946.5,1060.5C 2936.5,1060.5 2926.5,1060.5 2916.5,1060.5C 2916.33,1002.5 2916.5,944.499 2917,886.5C 2924.27,885.204 2931.44,883.87 2938.5,882.5 Z"/></g>
<g><path style="opacity:0.994" fill="#193768" d="M 3358.5,882.5 C 3360.83,882.5 3363.17,882.5 3365.5,882.5C 3365.5,942.167 3365.5,1001.83 3365.5,1061.5C 3355.83,1061.5 3346.17,1061.5 3336.5,1061.5C 3336.17,1003.16 3336.5,944.83 3337.5,886.5C 3344.66,885.341 3351.66,884.007 3358.5,882.5 Z"/></g>
<g><path style="opacity:0.983" fill="#193768" d="M 2652.5,884.5 C 2698.17,884.5 2743.83,884.5 2789.5,884.5C 2790.29,893.586 2791.63,902.586 2793.5,911.5C 2774.51,912.5 2755.51,912.833 2736.5,912.5C 2736.5,962.167 2736.5,1011.83 2736.5,1061.5C 2726.5,1061.5 2716.5,1061.5 2706.5,1061.5C 2706.5,1011.83 2706.5,962.167 2706.5,912.5C 2688.5,912.5 2670.5,912.5 2652.5,912.5C 2652.5,903.167 2652.5,893.833 2652.5,884.5 Z"/></g>
<g><path style="opacity:0.955" fill="#193768" d="M 3550.5,884.5 C 3567.56,882.397 3575.06,889.73 3573,906.5C 3571.64,909.735 3569.47,912.235 3566.5,914C 3559.83,916 3553.17,916 3546.5,914C 3539.97,909.036 3537.81,902.536 3540,894.5C 3542.11,889.557 3545.61,886.224 3550.5,884.5 Z"/></g>
<g><path style="opacity:0.955" fill="#193768" d="M 3615.5,884.5 C 3632.56,882.397 3640.06,889.73 3638,906.5C 3636.64,909.735 3634.47,912.235 3631.5,914C 3624.83,916 3618.17,916 3611.5,914C 3604.97,909.036 3602.81,902.536 3605,894.5C 3607.11,889.557 3610.61,886.224 3615.5,884.5 Z"/></g>
<g><path style="opacity:0.967" fill="#193768" d="M 2826.5,931.5 C 2864.79,929.399 2886.29,947.399 2891,985.5C 2891.5,992.826 2891.67,1000.16 2891.5,1007.5C 2862.83,1007.5 2834.17,1007.5 2805.5,1007.5C 2807.38,1028.05 2818.72,1038.71 2839.5,1039.5C 2854.48,1038.59 2867.31,1032.92 2878,1022.5C 2882.42,1029 2886.58,1035.67 2890.5,1042.5C 2875.87,1056.72 2858.2,1063.72 2837.5,1063.5C 2802.88,1062.64 2782.38,1045.3 2776,1011.5C 2772.44,989.957 2776.77,970.29 2789,952.5C 2799.16,941.175 2811.66,934.175 2826.5,931.5 Z M 2835.5,955.5 C 2853.4,957.399 2862.73,967.399 2863.5,985.5C 2844.17,985.5 2824.83,985.5 2805.5,985.5C 2807.96,967.708 2817.96,957.708 2835.5,955.5 Z"/></g>
<g><path style="opacity:0.979" fill="#193768" d="M 3118.5,931.5 C 3132.01,930.164 3143.85,933.83 3154,942.5C 3156.53,946.221 3158.53,950.221 3160,954.5C 3161.47,990.118 3161.97,1025.78 3161.5,1061.5C 3151.83,1061.5 3142.17,1061.5 3132.5,1061.5C 3132.94,1030.8 3132.44,1000.13 3131,969.5C 3130.15,966.302 3128.65,963.469 3126.5,961C 3117.49,955.552 3108.16,955.218 3098.5,960C 3091.79,963.384 3085.62,967.55 3080,972.5C 3079.5,1001.83 3079.33,1031.16 3079.5,1060.5C 3069.5,1060.5 3059.5,1060.5 3049.5,1060.5C 3049.5,1018.5 3049.5,976.5 3049.5,934.5C 3058.51,934.334 3067.51,934.5 3076.5,935C 3077.54,940.12 3078.54,945.287 3079.5,950.5C 3090.34,939.577 3103.34,933.244 3118.5,931.5 Z"/></g>
<g><path style="opacity:0.968" fill="#193768" d="M 3235.5,931.5 C 3259.15,928.105 3279.32,934.772 3296,951.5C 3308.36,969.617 3312.69,989.617 3309,1011.5C 3304.7,1038.14 3289.53,1054.97 3263.5,1062C 3238.06,1067.11 3216.56,1060.27 3199,1041.5C 3187.46,1023.48 3183.46,1003.82 3187,982.5C 3191.82,954.519 3207.98,937.519 3235.5,931.5 Z M 3247.5,956.5 C 3263.51,957.671 3273.67,966.004 3278,981.5C 3281.86,997.267 3279.86,1012.27 3272,1026.5C 3262.16,1037.45 3250.32,1040.62 3236.5,1036C 3226.74,1031.57 3220.58,1024.07 3218,1013.5C 3215.8,1001.76 3216.13,990.091 3219,978.5C 3223.79,964.859 3233.29,957.526 3247.5,956.5 Z"/></g>
<g><path style="opacity:0.968" fill="#193768" d="M 3441.5,931.5 C 3465.15,928.105 3485.32,934.772 3502,951.5C 3514.36,969.617 3518.69,989.617 3515,1011.5C 3510.7,1038.14 3495.53,1054.97 3469.5,1062C 3444.06,1067.11 3422.56,1060.27 3405,1041.5C 3393.46,1023.48 3389.46,1003.82 3393,982.5C 3397.82,954.519 3413.98,937.519 3441.5,931.5 Z M 3453.5,956.5 C 3469.51,957.671 3479.67,966.004 3484,981.5C 3487.86,997.267 3485.86,1012.27 3478,1026.5C 3468.16,1037.45 3456.32,1040.62 3442.5,1036C 3432.74,1031.57 3426.58,1024.07 3424,1013.5C 3421.8,1001.76 3422.13,990.091 3425,978.5C 3429.79,964.859 3439.29,957.526 3453.5,956.5 Z"/></g>
<g><path style="opacity:0.986" fill="#193768" d="M 3542.5,933.5 C 3552.17,933.5 3561.83,933.5 3571.5,933.5C 3571.67,983.834 3571.5,1034.17 3571,1084.5C 3568.5,1097.67 3560.67,1105.5 3547.5,1108C 3538.26,1108.82 3529.09,1108.65 3520,1107.5C 3518.08,1100.26 3517.58,1092.92 3518.5,1085.5C 3525.04,1087.18 3531.37,1086.68 3537.5,1084C 3539.04,1082.42 3540.21,1080.59 3541,1078.5C 3542.47,1030.2 3542.97,981.863 3542.5,933.5 Z"/></g>
<g><path style="opacity:1" fill="#193768" d="M 3607.5,934.5 C 3617.17,934.5 3626.83,934.5 3636.5,934.5C 3636.5,976.5 3636.5,1018.5 3636.5,1060.5C 3626.83,1060.5 3617.17,1060.5 3607.5,1060.5C 3607.5,1018.5 3607.5,976.5 3607.5,934.5 Z"/></g>
</svg>
