<?xml version="1.0" standalone="no"?>
<!DOCTYPE svg PUBLIC "-//W3C//DTD SVG 20010904//EN"
 "http://www.w3.org/TR/2001/REC-SVG-20010904/DTD/svg10.dtd">
<svg version="1.0" xmlns="http://www.w3.org/2000/svg"
 width="200.000000pt" height="200.000000pt" viewBox="0 0 200.000000 200.000000"
 preserveAspectRatio="xMidYMid meet">

<g transform="translate(0.000000,200.000000) scale(0.100000,-0.100000)"
fill="#000000" stroke="none">
<path d="M335 1230 c-3 -5 -15 -10 -26 -10 -11 0 -35 -16 -54 -35 l-35 -34 0
-186 c0 -178 1 -185 20 -185 19 0 20 7 20 165 l0 166 35 34 c29 30 41 35 80
35 25 0 45 -4 45 -9 0 -5 9 -11 20 -14 11 -3 20 -12 20 -21 0 -9 5 -16 10 -16
6 0 10 -63 10 -170 0 -163 1 -170 20 -170 19 0 20 7 20 185 l0 186 -35 34
c-21 22 -44 35 -60 35 -15 0 -24 4 -20 10 4 6 -8 10 -29 10 -19 0 -38 -4 -41
-10z"/>
<path d="M803 1233 c3 -5 -22 -9 -54 -11 -53 -2 -64 -6 -94 -37 -19 -19 -35
-43 -35 -54 0 -11 -4 -23 -10 -26 -6 -3 -10 -50 -10 -106 0 -59 4 -99 10 -99
6 0 10 -11 10 -25 0 -16 13 -39 35 -60 33 -34 37 -35 110 -35 68 0 75 2 75 20
0 17 -7 20 -50 20 -27 0 -50 5 -50 10 0 6 -7 10 -15 10 -9 0 -27 11 -40 25
-24 23 -25 30 -25 140 0 63 4 115 9 115 5 0 11 9 14 20 3 11 12 20 21 20 9 0
16 5 16 10 0 6 27 10 60 10 57 0 60 1 60 24 0 13 -7 27 -16 30 -21 8 -26 8
-21 -1z"/>
<path d="M1327 1233 c-4 -3 -7 -17 -7 -30 0 -22 4 -23 60 -23 33 0 60 -4 60
-10 0 -5 7 -10 16 -10 35 0 43 -31 44 -157 0 -70 -4 -123 -9 -123 -5 0 -13 -9
-16 -20 -4 -13 -15 -20 -31 -20 -13 0 -24 -4 -24 -10 0 -5 -22 -10 -50 -10
-43 0 -50 -3 -50 -20 0 -18 7 -20 75 -20 73 0 77 1 110 35 19 19 35 41 35 50
0 8 5 15 10 15 6 0 10 47 10 120 0 73 -4 120 -10 120 -5 0 -10 9 -10 20 0 11
-5 20 -10 20 -5 0 -9 3 -9 8 4 21 -3 32 -20 32 -11 0 -21 5 -23 12 -3 7 -28
12 -65 12 -34 1 -59 4 -56 9 5 9 -21 10 -30 0z"/>
<path d="M1749 1229 c-8 -5 -24 -9 -37 -9 -31 0 -72 -43 -72 -75 0 -34 25 -32
60 5 22 24 36 30 69 30 34 0 48 -6 76 -35 22 -21 35 -44 35 -60 0 -21 -5 -25
-30 -25 -16 0 -30 -4 -30 -10 0 -5 -18 -10 -40 -10 -22 0 -40 -4 -40 -10 0 -5
-7 -10 -15 -10 -16 0 -51 -18 -72 -37 -8 -7 -13 -37 -13 -83 0 -62 3 -74 25
-95 13 -14 36 -25 50 -25 14 0 25 -4 25 -10 0 -5 14 -10 30 -10 17 0 30 5 30
10 0 6 13 10 29 10 16 0 32 6 35 13 5 10 7 10 12 0 3 -7 14 -13 25 -13 18 0
19 9 19 185 l0 186 -35 34 c-20 20 -44 35 -58 35 -13 0 -27 3 -31 7 -10 11
-32 12 -47 2z m131 -289 c0 -33 -4 -60 -10 -60 -5 0 -10 -9 -10 -21 0 -11 -4
-18 -9 -14 -5 3 -16 -2 -24 -10 -25 -25 -94 -19 -122 10 -41 40 -28 115 19
115 9 0 16 5 16 10 0 6 14 10 30 10 17 0 30 5 30 10 0 6 18 10 40 10 l40 0 0
-60z"/>
<path d="M80 1000 c0 -193 2 -220 16 -220 40 0 44 21 44 220 0 199 -4 220 -44
220 -14 0 -16 -27 -16 -220z"/>
<path d="M920 1050 c0 -107 4 -170 10 -170 6 0 10 -12 10 -26 0 -29 21 -54 45
-54 9 0 13 -4 10 -10 -3 -6 5 -10 19 -10 14 0 28 -4 31 -10 3 -5 19 -10 35
-10 16 0 32 5 35 10 3 6 17 10 31 10 28 0 74 40 74 65 0 8 5 15 10 15 6 0 10
67 10 181 l0 180 -27 -3 -28 -3 -3 -174 -2 -174 -28 -24 c-19 -16 -39 -23 -69
-23 -24 0 -43 5 -43 10 0 6 -7 10 -16 10 -39 0 -44 22 -44 204 l0 176 -30 0
-30 0 0 -170z"/>
</g>
</svg>
