<?xml version="1.0" encoding="UTF-8"?>
<!DOCTYPE svg PUBLIC "-//W3C//DTD SVG 1.1//EN" "http://www.w3.org/Graphics/SVG/1.1/DTD/svg11.dtd">
<svg xmlns="http://www.w3.org/2000/svg" version="1.1" width="200px" height="200px" style="shape-rendering:geometricPrecision; text-rendering:geometricPrecision; image-rendering:optimizeQuality; fill-rule:evenodd; clip-rule:evenodd" xmlns:xlink="http://www.w3.org/1999/xlink">
<g><path style="opacity:1" fill="#fdfefe" d="M -0.5,-0.5 C 66.1667,-0.5 132.833,-0.5 199.5,-0.5C 199.5,66.1667 199.5,132.833 199.5,199.5C 132.833,199.5 66.1667,199.5 -0.5,199.5C -0.5,132.833 -0.5,66.1667 -0.5,-0.5 Z"/></g>
<g><path style="opacity:1" fill="#6f8797" d="M 145.5,77.5 C 140.833,77.5 136.167,77.5 131.5,77.5C 133.397,76.1952 135.731,75.5286 138.5,75.5C 141.269,75.5286 143.603,76.1952 145.5,77.5 Z"/></g>
<g><path style="opacity:1" fill="#728f9d" d="M 181.5,77.5 C 178.167,77.5 174.833,77.5 171.5,77.5C 172.694,76.2227 174.36,75.5561 176.5,75.5C 178.64,75.5561 180.306,76.2227 181.5,77.5 Z"/></g>
<g><path style="opacity:1" fill="#597989" d="M 41.5,77.5 C 38.1667,77.5 34.8333,77.5 31.5,77.5C 32.6936,76.2227 34.3603,75.5561 36.5,75.5C 38.6397,75.5561 40.3064,76.2227 41.5,77.5 Z"/></g>
<g><path style="opacity:1" fill="#678193" d="M 83.5,75.5 C 83.5,76.1667 83.5,76.8333 83.5,77.5C 79.5,77.5 75.5,77.5 71.5,77.5C 75.0293,75.5772 79.0293,74.9106 83.5,75.5 Z"/></g>
<g><path style="opacity:1" fill="#c5dbe8" d="M 7.5,79.5 C 7.5,92.8333 7.5,106.167 7.5,119.5C 6.16987,113.202 5.5032,106.535 5.5,99.5C 5.5032,92.4649 6.16987,85.7983 7.5,79.5 Z"/></g>
<g><path style="opacity:1" fill="#07314e" d="M 11.5,77.5 C 11.5,92.1667 11.5,106.833 11.5,121.5C 9.51676,121.843 8.18342,121.176 7.5,119.5C 7.5,106.167 7.5,92.8333 7.5,79.5C 8.18342,77.8235 9.51676,77.1568 11.5,77.5 Z"/></g>
<g><path style="opacity:1" fill="#627c8b" d="M 11.5,77.5 C 12.8307,84.4682 13.4974,91.8016 13.5,99.5C 13.4974,107.198 12.8307,114.532 11.5,121.5C 11.5,106.833 11.5,92.1667 11.5,77.5 Z"/></g>
<g><path style="opacity:1" fill="#10344d" d="M 71.5,77.5 C 75.5,77.5 79.5,77.5 83.5,77.5C 83.5,78.8333 83.5,80.1667 83.5,81.5C 70.179,80.1543 64.179,86.1543 65.5,99.5C 65.5093,103.893 66.176,107.893 67.5,111.5C 68.4461,114.313 70.4461,115.646 73.5,115.5C 76.3373,117.402 79.6707,118.069 83.5,117.5C 83.5,118.833 83.5,120.167 83.5,121.5C 79.5,121.5 75.5,121.5 71.5,121.5C 67.758,120.782 64.758,118.782 62.5,115.5C 61.5713,114.311 61.238,112.978 61.5,111.5C 61.5,102.833 61.5,94.1667 61.5,85.5C 63.6691,81.3262 67.0025,78.6596 71.5,77.5 Z"/></g>
<g><path style="opacity:1" fill="#13364e" d="M 117.5,111.5 C 119.478,100.549 120.144,89.216 119.5,77.5C 120.833,77.5 122.167,77.5 123.5,77.5C 123.832,89.5185 123.499,101.518 122.5,113.5C 121.005,118.002 118.005,120.669 113.5,121.5C 109.5,121.5 105.5,121.5 101.5,121.5C 96.1244,120.452 93.1244,117.118 92.5,111.5C 91.5012,100.186 91.1678,88.8529 91.5,77.5C 93.5,77.5 95.5,77.5 97.5,77.5C 97.1677,89.5185 97.501,101.518 98.5,113.5C 102.986,117.064 107.986,118.064 113.5,116.5C 115.261,115.083 116.594,113.417 117.5,111.5 Z"/></g>
<g><path style="opacity:1" fill="#2e4e66" d="M 119.5,77.5 C 120.144,89.216 119.478,100.549 117.5,111.5C 116.856,99.784 117.522,88.4507 119.5,77.5 Z"/></g>
<g><path style="opacity:1" fill="#e1ecf3" d="M 83.5,75.5 C 85.8542,78.0394 86.1876,81.0394 84.5,84.5C 82.2637,85.812 80.2637,85.4787 78.5,83.5C 73.5116,84.6567 70.3449,87.6567 69,92.5C 68.6667,92.1667 68.3333,91.8333 68,91.5C 67.5004,98.1583 67.3337,104.825 67.5,111.5C 66.176,107.893 65.5093,103.893 65.5,99.5C 64.179,86.1543 70.179,80.1543 83.5,81.5C 83.5,80.1667 83.5,78.8333 83.5,77.5C 83.5,76.8333 83.5,76.1667 83.5,75.5 Z"/></g>
<g><path style="opacity:1" fill="#0c334b" d="M 31.5,77.5 C 34.8333,77.5 38.1667,77.5 41.5,77.5C 45.242,78.2177 48.242,80.2177 50.5,83.5C 51.4287,84.6888 51.762,86.0222 51.5,87.5C 51.5,98.8333 51.5,110.167 51.5,121.5C 49.5168,121.843 48.1834,121.176 47.5,119.5C 48.1428,108.448 47.4762,97.7809 45.5,87.5C 42.3944,81.9919 37.7277,80.3253 31.5,82.5C 29.7389,83.9166 28.4056,85.5833 27.5,87.5C 25.5223,98.4507 24.8556,109.784 25.5,121.5C 24.1667,121.5 22.8333,121.5 21.5,121.5C 21.5,110.167 21.5,98.8333 21.5,87.5C 22.2177,83.758 24.2177,80.758 27.5,78.5C 28.6888,77.5713 30.0222,77.238 31.5,77.5 Z"/></g>
<g><path style="opacity:1" fill="#7793a6" d="M 185.5,87.5 C 186.693,87.9704 187.36,88.9704 187.5,90.5C 187.36,92.0296 186.693,93.0296 185.5,93.5C 185.5,91.5 185.5,89.5 185.5,87.5 Z"/></g>
<g><path style="opacity:1" fill="#0f354e" d="M 171.5,77.5 C 174.833,77.5 178.167,77.5 181.5,77.5C 185.242,78.2177 188.242,80.2177 190.5,83.5C 191.429,84.6888 191.762,86.0222 191.5,87.5C 191.5,98.1667 191.5,108.833 191.5,119.5C 190.121,122.047 188.454,122.047 186.5,119.5C 185.158,121.005 183.492,121.672 181.5,121.5C 178.167,121.5 174.833,121.5 171.5,121.5C 166.833,120.833 164.167,118.167 163.5,113.5C 163.5,110.167 163.5,106.833 163.5,103.5C 164.406,101.583 165.739,99.9166 167.5,98.5C 173.364,96.2103 179.364,94.5436 185.5,93.5C 186.693,93.0296 187.36,92.0296 187.5,90.5C 187.36,88.9704 186.693,87.9704 185.5,87.5C 184.833,85.5 183.5,84.1667 181.5,83.5C 180.306,82.2227 178.64,81.5561 176.5,81.5C 174.36,81.5561 172.694,82.2227 171.5,83.5C 169.29,85.701 166.624,87.0343 163.5,87.5C 163.238,81.7665 165.905,78.4332 171.5,77.5 Z"/></g>
<g><path style="opacity:1" fill="#afc4d3" d="M 181.5,83.5 C 178.167,83.5 174.833,83.5 171.5,83.5C 172.694,82.2227 174.36,81.5561 176.5,81.5C 178.64,81.5561 180.306,82.2227 181.5,83.5 Z"/></g>
<g><path style="opacity:1" fill="#859dac" d="M 21.5,87.5 C 21.5,98.8333 21.5,110.167 21.5,121.5C 20.1712,116.208 19.5045,110.542 19.5,104.5C 19.5045,98.4585 20.1712,92.7918 21.5,87.5 Z"/></g>
<g><path style="opacity:1" fill="#7e9aae" d="M 27.5,87.5 C 28.1444,99.216 27.4777,110.549 25.5,121.5C 24.8556,109.784 25.5223,98.4507 27.5,87.5 Z"/></g>
<g><path style="opacity:1" fill="#8699a4" d="M 45.5,87.5 C 47.4762,97.7809 48.1428,108.448 47.5,119.5C 45.5238,109.219 44.8572,98.5524 45.5,87.5 Z"/></g>
<g><path style="opacity:1" fill="#8298a6" d="M 51.5,87.5 C 52.8288,92.7918 53.4955,98.4585 53.5,104.5C 53.4955,110.542 52.8288,116.208 51.5,121.5C 51.5,110.167 51.5,98.8333 51.5,87.5 Z"/></g>
<g><path style="opacity:1" fill="#557080" d="M 61.5,85.5 C 61.5,94.1667 61.5,102.833 61.5,111.5C 60.1745,107.555 59.5079,103.222 59.5,98.5C 59.5079,93.7784 60.1745,89.4451 61.5,85.5 Z"/></g>
<g><path style="opacity:1" fill="#92a4a9" d="M 191.5,87.5 C 192.828,92.4558 193.495,97.7891 193.5,103.5C 193.495,109.211 192.828,114.544 191.5,119.5C 191.5,108.833 191.5,98.1667 191.5,87.5 Z"/></g>
<g><path style="opacity:1" fill="#f3f9f8" d="M 185.5,99.5 C 185.5,103.5 185.5,107.5 185.5,111.5C 182.394,117.008 177.728,118.675 171.5,116.5C 167.297,113.034 166.63,109.034 169.5,104.5C 174.544,101.818 179.877,100.151 185.5,99.5 Z"/></g>
<g><path style="opacity:1" fill="#86a0af" d="M 185.5,99.5 C 186.794,101.048 187.461,103.048 187.5,105.5C 187.461,107.952 186.794,109.952 185.5,111.5C 185.5,107.5 185.5,103.5 185.5,99.5 Z"/></g>
<g><path style="opacity:1" fill="#183a54" d="M 131.5,77.5 C 136.167,77.5 140.833,77.5 145.5,77.5C 149.916,78.546 152.916,81.2126 154.5,85.5C 155.833,94.1667 155.833,102.833 154.5,111.5C 152.349,116.658 148.682,119.991 143.5,121.5C 139.5,121.5 135.5,121.5 131.5,121.5C 131.5,120.167 131.5,118.833 131.5,117.5C 135.329,118.069 138.663,117.402 141.5,115.5C 144.535,115.479 146.868,114.146 148.5,111.5C 149.934,102.061 149.6,92.7276 147.5,83.5C 142.308,81.9693 136.974,81.3026 131.5,81.5C 131.5,80.1667 131.5,78.8333 131.5,77.5 Z"/></g>
<g><path style="opacity:1" fill="#819aa6" d="M 163.5,103.5 C 163.5,106.833 163.5,110.167 163.5,113.5C 162.223,112.306 161.556,110.64 161.5,108.5C 161.556,106.36 162.223,104.694 163.5,103.5 Z"/></g>
<g><path style="opacity:1" fill="#94b2c5" d="M 73.5,115.5 C 77.3293,114.931 80.6627,115.598 83.5,117.5C 79.6707,118.069 76.3373,117.402 73.5,115.5 Z"/></g>
<g><path style="opacity:1" fill="#94b2c4" d="M 141.5,115.5 C 138.663,117.402 135.329,118.069 131.5,117.5C 134.337,115.598 137.671,114.931 141.5,115.5 Z"/></g>
<g><path style="opacity:1" fill="#9db3bb" d="M 71.5,121.5 C 75.5,121.5 79.5,121.5 83.5,121.5C 81.9522,122.794 79.9522,123.461 77.5,123.5C 75.0478,123.461 73.0478,122.794 71.5,121.5 Z"/></g>
<g><path style="opacity:1" fill="#608296" d="M 101.5,121.5 C 105.5,121.5 109.5,121.5 113.5,121.5C 111.952,122.794 109.952,123.461 107.5,123.5C 105.048,123.461 103.048,122.794 101.5,121.5 Z"/></g>
<g><path style="opacity:1" fill="#95afbd" d="M 131.5,121.5 C 135.5,121.5 139.5,121.5 143.5,121.5C 141.952,122.794 139.952,123.461 137.5,123.5C 135.048,123.461 133.048,122.794 131.5,121.5 Z"/></g>
<g><path style="opacity:1" fill="#678192" d="M 171.5,121.5 C 174.833,121.5 178.167,121.5 181.5,121.5C 180.306,122.777 178.64,123.444 176.5,123.5C 174.36,123.444 172.694,122.777 171.5,121.5 Z"/></g>
</svg>
