<?xml version="1.0" standalone="no"?>
<!DOCTYPE svg PUBLIC "-//W3C//DTD SVG 20010904//EN"
 "http://www.w3.org/TR/2001/REC-SVG-20010904/DTD/svg10.dtd">
<svg version="1.0" xmlns="http://www.w3.org/2000/svg"
 width="748.000000pt" height="266.000000pt" viewBox="0 0 748.000000 266.000000"
 preserveAspectRatio="xMidYMid meet">

<g transform="translate(0.000000,266.000000) scale(0.100000,-0.100000)"
fill="#000000" stroke="none">
<path d="M593 2157 c-139 -85 -179 -115 -170 -123 7 -7 57 -39 111 -72 l99
-61 58 51 c48 41 58 56 61 86 3 34 9 40 85 87 46 27 83 53 83 57 0 6 -130 88
-141 88 -2 0 -86 -51 -186 -113z"/>
<path d="M1025 2159 c-185 -114 -205 -128 -170 -115 11 4 47 12 79 17 125 21
273 -26 374 -116 l49 -44 99 61 c54 33 104 65 111 72 9 8 -29 36 -162 119 -96
59 -180 109 -187 112 -7 3 -94 -45 -193 -106z"/>
<path d="M1982 1603 l3 -468 65 0 65 0 3 334 c2 284 4 332 17 328 8 -3 72 -42
142 -85 70 -43 134 -82 141 -86 8 -5 68 27 154 81 78 48 145 90 150 91 4 2 8
-142 8 -320 0 -239 3 -327 12 -336 13 -13 106 -16 126 -4 10 7 12 107 10 469
l-3 461 -224 -138 -223 -139 -82 51 c-44 28 -108 68 -141 88 -33 20 -97 60
-143 88 l-82 52 2 -467z"/>
<path d="M3453 2055 c-237 -52 -391 -282 -353 -527 45 -293 341 -466 628 -367
190 65 302 228 302 439 0 231 -139 409 -357 455 -83 18 -138 18 -220 0z m239
-153 c70 -31 141 -102 173 -174 24 -54 27 -69 23 -142 -6 -99 -34 -162 -103
-225 -209 -193 -543 -50 -548 234 0 33 5 79 11 102 27 94 120 186 221 218 61
20 163 14 223 -13z"/>
<path d="M4122 2061 c-9 -5 -12 -26 -10 -67 l3 -59 128 -5 128 -5 0 -382 c-1
-430 -4 -413 74 -413 81 0 75 -34 75 406 l0 393 133 3 132 3 3 53 c2 31 -2 60
-9 68 -9 12 -67 14 -328 14 -174 0 -322 -4 -329 -9z"/>
<path d="M5022 2058 c-17 -17 -17 -899 0 -916 16 -16 110 -16 126 0 17 17 17
899 0 916 -7 7 -35 12 -63 12 -28 0 -56 -5 -63 -12z"/>
<path d="M5496 2054 c-14 -13 -16 -56 -16 -312 0 -163 5 -326 11 -362 17 -107
70 -179 164 -222 43 -20 66 -23 170 -23 111 0 124 2 177 28 32 15 75 48 96 72
68 77 72 103 72 479 0 245 -3 335 -12 344 -7 7 -35 12 -63 12 -28 0 -56 -5
-63 -12 -9 -9 -12 -99 -12 -343 0 -294 -2 -334 -18 -364 -30 -60 -62 -76 -162
-79 -77 -3 -94 -1 -128 18 -77 43 -77 42 -80 425 -2 250 -6 341 -15 347 -22
14 -105 9 -121 -8z"/>
<path d="M6550 2050 c-69 -23 -133 -88 -150 -151 -17 -63 -7 -158 21 -211 35
-63 96 -99 245 -142 165 -49 201 -67 220 -113 20 -47 10 -104 -22 -134 -25
-23 -32 -24 -212 -27 -103 -1 -197 -5 -209 -7 -21 -5 -23 -11 -23 -65 0 -55 2
-60 24 -66 14 -3 112 -4 219 -2 193 3 194 3 252 33 87 44 119 100 124 212 3
74 0 90 -23 137 -41 83 -85 109 -299 171 -155 46 -177 63 -177 134 0 38 6 56
24 78 l24 28 183 3 c110 2 189 8 196 14 16 13 17 100 1 116 -8 8 -64 12 -187
12 -146 -1 -185 -4 -231 -20z"/>
<path d="M390 1590 c0 -204 3 -369 8 -367 4 2 52 31 108 65 l101 62 -28 54
c-56 112 -59 261 -8 384 12 29 20 54 18 56 -10 9 -173 108 -185 113 -12 4 -14
-52 -14 -367z"/>
<path d="M1500 1905 c-47 -30 -89 -56 -95 -58 -5 -2 1 -26 13 -54 78 -181 38
-380 -105 -521 l-64 -62 3 -125 3 -125 173 107 172 107 0 393 c0 216 -3 393
-7 393 -5 0 -46 -25 -93 -55z"/>
<path d="M537 1224 c-69 -42 -105 -70 -99 -76 5 -5 74 -50 153 -99 l144 -88 3
126 3 127 -43 38 c-24 20 -45 37 -48 38 -3 0 -54 -30 -113 -66z"/>
<path d="M820 1065 l0 -107 44 26 c89 52 300 188 283 182 -10 -3 -47 -11 -83
-18 -63 -11 -138 -5 -221 18 -23 6 -23 5 -23 -101z"/>
<path d="M1117 1059 c-53 -35 -52 -41 12 -77 l41 -23 0 65 c0 36 -1 66 -2 66
-2 0 -24 -14 -51 -31z"/>
</g>
</svg>
