<?xml version="1.0" encoding="UTF-8"?>
<!DOCTYPE svg PUBLIC "-//W3C//DTD SVG 1.1//EN" "http://www.w3.org/Graphics/SVG/1.1/DTD/svg11.dtd">
<svg xmlns="http://www.w3.org/2000/svg" version="1.1" width="748px" height="266px" style="shape-rendering:geometricPrecision; text-rendering:geometricPrecision; image-rendering:optimizeQuality; fill-rule:evenodd; clip-rule:evenodd" xmlns:xlink="http://www.w3.org/1999/xlink">
<g><path style="opacity:1" fill="#fefefe" d="M -0.5,-0.5 C 248.833,-0.5 498.167,-0.5 747.5,-0.5C 747.5,88.1667 747.5,176.833 747.5,265.5C 498.167,265.5 248.833,265.5 -0.5,265.5C -0.5,176.833 -0.5,88.1667 -0.5,-0.5 Z"/></g>
<g><path style="opacity:1" fill="#064b62" d="M 74.5,65.5 C 70.2092,68.1231 66.5425,71.4564 63.5,75.5C 56.2011,71.2214 48.8678,66.8881 41.5,62.5C 40.1667,61.8333 40.1667,61.1667 41.5,60.5C 53.2599,52.733 65.2599,45.3997 77.5,38.5C 82.7026,40.7095 87.3692,43.7095 91.5,47.5C 86.086,51.2907 80.586,54.9574 75,58.5C 74.5034,60.8098 74.3367,63.1432 74.5,65.5 Z"/></g>
<g><path style="opacity:1" fill="#054a62" d="M 134.5,75.5 C 121.561,60.9285 105.561,55.9285 86.5,60.5C 85.8933,60.3764 85.56,60.0431 85.5,59.5C 96.6152,52.8914 107.615,46.0581 118.5,39C 119.833,38.3333 121.167,38.3333 122.5,39C 134.167,46.5 145.833,54 157.5,61.5C 149.944,66.4401 142.278,71.1068 134.5,75.5 Z"/></g>
<g><path style="opacity:1" fill="#074a62" d="M 273.5,150.5 C 273.833,128.49 273.5,106.49 272.5,84.5C 271.893,84.6236 271.56,84.9569 271.5,85.5C 262.027,91.7404 252.36,97.7404 242.5,103.5C 232.295,98.1323 222.462,92.1323 213,85.5C 212.667,107.167 212.333,128.833 212,150.5C 211.5,151 211,151.5 210.5,152C 206.5,152.667 202.5,152.667 198.5,152C 197.944,151.617 197.611,151.117 197.5,150.5C 197.169,119.995 197.502,89.6621 198.5,59.5C 213.149,68.1594 227.816,76.826 242.5,85.5C 257.545,76.8921 272.378,67.8921 287,58.5C 287.667,89.5 287.667,120.5 287,151.5C 282.921,152.629 278.755,152.796 274.5,152C 273.944,151.617 273.611,151.117 273.5,150.5 Z"/></g>
<g><path style="opacity:1" fill="#084b63" d="M 346.5,58.5 C 379.898,56.2483 398.898,71.5816 403.5,104.5C 402.147,131.017 388.48,146.85 362.5,152C 332.451,153.894 314.618,140.061 309,110.5C 308.054,83.3706 320.554,66.0372 346.5,58.5 Z"/></g>
<g><path style="opacity:1" fill="#064a62" d="M 476.5,72.5 C 468.167,72.5 459.833,72.5 451.5,72.5C 451.5,98.5 451.5,124.5 451.5,150.5C 451.389,151.117 451.056,151.617 450.5,152C 446.5,152.667 442.5,152.667 438.5,152C 438,151.5 437.5,151 437,150.5C 436.5,124.502 436.333,98.5021 436.5,72.5C 428.16,72.6664 419.827,72.4997 411.5,72C 410.371,67.9215 410.204,63.7548 411,59.5C 432.76,58.3401 454.594,58.1734 476.5,59C 477.743,60.8697 478.41,63.0363 478.5,65.5C 478.333,67.5 478.167,69.5 478,71.5C 477.617,72.056 477.117,72.3893 476.5,72.5 Z"/></g>
<g><path style="opacity:1" fill="#054a62" d="M 501.5,58.5 C 505.514,58.3345 509.514,58.5012 513.5,59C 514,59.5 514.5,60 515,60.5C 515.667,90.5 515.667,120.5 515,150.5C 514.5,151 514,151.5 513.5,152C 509.245,152.796 505.079,152.629 501,151.5C 500.175,120.428 500.342,89.4283 501.5,58.5 Z"/></g>
<g><path style="opacity:1" fill="#064b62" d="M 549.5,58.5 C 553.767,58.203 557.934,58.5363 562,59.5C 562.031,82.5632 562.697,105.563 564,128.5C 567.492,136.248 573.492,139.581 582,138.5C 591.12,139.446 597.453,135.779 601,127.5C 601.333,105.167 601.667,82.8333 602,60.5C 603.996,58.9409 606.329,58.2742 609,58.5C 611.671,58.2742 614.004,58.9409 616,60.5C 616.667,83.5 616.667,106.5 616,129.5C 612.194,142.306 603.694,149.806 590.5,152C 575.578,155.578 563.078,151.745 553,140.5C 550.416,136.167 548.749,131.5 548,126.5C 547.333,104.5 547.333,82.5 548,60.5C 548.717,59.9558 549.217,59.2891 549.5,58.5 Z"/></g>
<g><path style="opacity:1" fill="#064b62" d="M 658.5,58.5 C 670.838,58.3335 683.171,58.5001 695.5,59C 696,59.5 696.5,60 697,60.5C 697.667,63.8333 697.667,67.1667 697,70.5C 696.5,71 696,71.5 695.5,72C 683.833,72.3333 672.167,72.6667 660.5,73C 653.947,75.7299 651.78,80.5632 654,87.5C 654.583,89.0016 655.416,90.3349 656.5,91.5C 667.685,95.583 679.018,99.4164 690.5,103C 703.479,111.174 707.313,122.674 702,137.5C 699.192,144.661 694.026,149.161 686.5,151C 678.559,152.099 670.559,152.599 662.5,152.5C 655.59,152.491 648.756,152.158 642,151.5C 641.204,147.245 641.371,143.079 642.5,139C 655.5,138.667 668.5,138.333 681.5,138C 684.583,137.214 686.749,135.381 688,132.5C 688.667,128.833 688.667,125.167 688,121.5C 687.535,120.069 686.701,118.903 685.5,118C 674.637,113.934 663.637,110.268 652.5,107C 640.465,99.9346 635.965,89.4346 639,75.5C 642.319,66.0045 648.819,60.3379 658.5,58.5 Z"/></g>
<g><path style="opacity:1" fill="#2cb8d9" d="M 134.5,75.5 C 130.134,79.1075 125.301,82.1075 120,84.5C 107.71,77.0466 95.5436,69.3799 83.5,61.5C 83.8555,60.4777 84.5222,59.811 85.5,59.5C 85.56,60.0431 85.8933,60.3764 86.5,60.5C 105.561,55.9285 121.561,60.9285 134.5,75.5 Z"/></g>
<g><path style="opacity:1" fill="#6892a0" d="M 198.5,59.5 C 197.502,89.6621 197.169,119.995 197.5,150.5C 196.17,119.997 196.17,89.3307 197.5,58.5C 198.107,58.6236 198.44,58.9569 198.5,59.5 Z"/></g>
<g><path style="opacity:1" fill="#024961" d="M 124.5,169.5 C 124.334,160.827 124.5,152.16 125,143.5C 145.913,126.616 150.747,105.95 139.5,81.5C 146.021,77.3141 152.521,72.9808 159,68.5C 159.667,95.1667 159.667,121.833 159,148.5C 147.722,155.888 136.222,162.888 124.5,169.5 Z"/></g>
<g><path style="opacity:1" fill="#034961" d="M 38.5,68.5 C 45.2032,72.8468 51.8699,77.1802 58.5,81.5C 50.3504,97.9548 50.6838,114.288 59.5,130.5C 52.8699,134.82 46.2032,139.153 39.5,143.5C 38.5023,118.672 38.169,93.6722 38.5,68.5 Z"/></g>
<g><path style="opacity:1" fill="#30bada" d="M 74.5,65.5 C 74.8288,71.2055 74.4954,76.8722 73.5,82.5C 70.1002,80.1444 66.7669,77.8111 63.5,75.5C 66.5425,71.4564 70.2092,68.1231 74.5,65.5 Z"/></g>
<g><path style="opacity:1" fill="#dce6e8" d="M 38.5,68.5 C 38.169,93.6722 38.5023,118.672 39.5,143.5C 39.44,144.043 39.1067,144.376 38.5,144.5C 37.171,119.003 37.171,93.6699 38.5,68.5 Z"/></g>
<g><path style="opacity:1" fill="#fcfdfd" d="M 350.5,72.5 C 369.115,71.7207 381.615,80.054 388,97.5C 390.376,118.931 381.21,132.431 360.5,138C 342.281,138.967 330.115,130.8 324,113.5C 321.278,92.2628 330.111,78.5961 350.5,72.5 Z"/></g>
<g><path style="opacity:1" fill="#28b8da" d="M 115.5,148.5 C 104.161,152.499 92.8282,152.499 81.5,148.5C 81.3334,121.831 81.5,95.1646 82,68.5C 93.0336,75.6978 104.2,82.6978 115.5,89.5C 116.828,109.329 116.828,128.996 115.5,148.5 Z"/></g>
<g><path style="opacity:1" fill="#96b4bd" d="M 476.5,72.5 C 468.684,73.4924 460.684,73.8257 452.5,73.5C 452.831,99.3388 452.498,125.005 451.5,150.5C 451.5,124.5 451.5,98.5 451.5,72.5C 459.833,72.5 468.167,72.5 476.5,72.5 Z"/></g>
<g><path style="opacity:1" fill="#32b8d8" d="M 139.5,81.5 C 150.747,105.95 145.913,126.616 125,143.5C 124.5,152.16 124.334,160.827 124.5,169.5C 123.337,143.337 123.17,117.003 124,90.5C 129.072,87.2452 134.238,84.2452 139.5,81.5 Z"/></g>
<g><path style="opacity:1" fill="#28647a" d="M 271.5,85.5 C 271.56,84.9569 271.893,84.6236 272.5,84.5C 273.5,106.49 273.833,128.49 273.5,150.5C 272.833,128.833 272.167,107.167 271.5,85.5 Z"/></g>
<g><path style="opacity:1" fill="#2eb8d9" d="M 58.5,81.5 C 63.7618,84.2452 68.9284,87.2452 74,90.5C 74.8324,101.182 74.6657,111.849 73.5,122.5C 69.0565,125.622 64.3898,128.289 59.5,130.5C 50.6838,114.288 50.3504,97.9548 58.5,81.5 Z"/></g>
<g><path style="opacity:1" fill="#4ab4cf" d="M 73.5,169.5 C 73.6664,160.827 73.4998,152.16 73,143.5C 70.0019,141.332 67.1686,138.999 64.5,136.5C 67.2624,134.275 70.2624,132.275 73.5,130.5C 74.8252,143.661 74.8252,156.661 73.5,169.5 Z"/></g>
<g><path style="opacity:1" fill="#054a62" d="M 64.5,136.5 C 67.1686,138.999 70.0019,141.332 73,143.5C 73.4998,152.16 73.6664,160.827 73.5,169.5C 62.8577,163.511 52.5243,157.011 42.5,150C 49.7221,145.227 57.0554,140.727 64.5,136.5 Z"/></g>
<g><path style="opacity:1" fill="#064b63" d="M 81.5,148.5 C 92.8282,152.499 104.161,152.499 115.5,148.5C 104.706,155.736 93.7056,162.736 82.5,169.5C 81.5088,162.687 81.1755,155.687 81.5,148.5 Z"/></g>
<g><path style="opacity:1" fill="#95b2bd" d="M 81.5,148.5 C 81.1755,155.687 81.5088,162.687 82.5,169.5C 82.44,170.043 82.1067,170.376 81.5,170.5C 80.1806,163.01 80.1806,155.677 81.5,148.5 Z"/></g>
<g><path style="opacity:1" fill="#104e66" d="M 116.5,156.5 C 116.818,161.032 116.485,165.366 115.5,169.5C 112.319,167.163 108.986,164.996 105.5,163C 109.194,160.822 112.861,158.655 116.5,156.5 Z"/></g>
<g><path style="opacity:1" fill="#7ba0ad" d="M 116.5,156.5 C 117.812,161.015 117.812,165.682 116.5,170.5C 115.893,170.376 115.56,170.043 115.5,169.5C 116.485,165.366 116.818,161.032 116.5,156.5 Z"/></g>
<g><path style="opacity:1" fill="#35bbdb" d="M 521.5,181.5 C 520.512,186.64 520.179,191.974 520.5,197.5C 527.833,197.5 535.167,197.5 542.5,197.5C 543.807,199.223 543.807,201.057 542.5,203C 535.508,203.5 528.508,203.666 521.5,203.5C 520.515,207.634 520.182,211.968 520.5,216.5C 527.833,216.5 535.167,216.5 542.5,216.5C 543.807,218.223 543.807,220.057 542.5,222C 533.173,222.5 523.839,222.666 514.5,222.5C 514.5,206.833 514.5,191.167 514.5,175.5C 524.167,175.5 533.833,175.5 543.5,175.5C 543.739,177.467 543.406,179.301 542.5,181C 535.508,181.5 528.508,181.666 521.5,181.5 Z"/></g>
<g><path style="opacity:1" fill="#36bbdb" d="M 572.5,175.5 C 581.582,175.086 590.582,175.586 599.5,177C 605.659,182.312 607.159,188.812 604,196.5C 601.624,199.045 599.124,201.378 596.5,203.5C 599.833,209.5 603.167,215.5 606.5,221.5C 603.388,222.983 600.555,222.65 598,220.5C 595.294,214.922 592.461,209.422 589.5,204C 586.183,203.502 582.85,203.335 579.5,203.5C 579.666,209.509 579.499,215.509 579,221.5C 577,222.833 575,222.833 573,221.5C 572.5,206.17 572.333,190.837 572.5,175.5 Z"/></g>
<g><path style="opacity:1" fill="#b6e8f2" d="M 501.5,175.5 C 502.827,191.005 502.827,206.672 501.5,222.5C 500.893,222.376 500.56,222.043 500.5,221.5C 501.496,206.342 501.83,191.009 501.5,175.5 Z"/></g>
<g><path style="opacity:1" fill="#35bbdb" d="M 658.5,175.5 C 686.991,169.824 698.158,181.158 692,209.5C 690.5,216.333 686.333,220.5 679.5,222C 672.508,222.5 665.508,222.666 658.5,222.5C 658.5,206.833 658.5,191.167 658.5,175.5 Z"/></g>
<g><path style="opacity:1" fill="#fdfefe" d="M 579.5,181.5 C 584.511,181.334 589.511,181.501 594.5,182C 597.366,183.393 598.699,185.726 598.5,189C 598.699,192.274 597.366,194.607 594.5,196C 589.511,196.499 584.511,196.666 579.5,196.5C 579.5,191.5 579.5,186.5 579.5,181.5 Z"/></g>
<g><path style="opacity:1" fill="#73d0e5" d="M 665.5,181.5 C 665.5,192.833 665.5,204.167 665.5,215.5C 669.5,215.5 673.5,215.5 677.5,215.5C 673.366,216.485 669.032,216.818 664.5,216.5C 664.172,204.655 664.505,192.988 665.5,181.5 Z"/></g>
<g><path style="opacity:1" fill="#fcfefe" d="M 665.5,181.5 C 670.179,181.334 674.845,181.501 679.5,182C 681.939,182.774 683.773,184.274 685,186.5C 685.667,194.167 685.667,201.833 685,209.5C 684.097,213.531 681.597,215.531 677.5,215.5C 673.5,215.5 669.5,215.5 665.5,215.5C 665.5,204.167 665.5,192.833 665.5,181.5 Z"/></g>
<g><path style="opacity:1" fill="#35bbdb" d="M 621.5,175.5 C 626.167,175.5 630.833,175.5 635.5,175.5C 635.5,177.5 635.5,179.5 635.5,181.5C 624.204,178.317 619.371,182.317 621,193.5C 621.5,195.333 622.667,196.5 624.5,197C 628.821,197.499 633.154,197.666 637.5,197.5C 638.127,193.54 640.46,191.206 644.5,190.5C 644.5,192.833 644.5,195.167 644.5,197.5C 646.833,197.5 649.167,197.5 651.5,197.5C 651.5,199.5 651.5,201.5 651.5,203.5C 649.167,203.5 646.833,203.5 644.5,203.5C 646.343,212.185 643.343,218.352 635.5,222C 630.5,222.667 625.5,222.667 620.5,222C 611.18,215.764 610.18,208.431 617.5,200C 612.791,193.529 612.291,186.696 616,179.5C 617.812,178.023 619.645,176.69 621.5,175.5 Z"/></g>
<g><path style="opacity:1" fill="#95dcec" d="M 521.5,181.5 C 521.5,186.5 521.5,191.5 521.5,196.5C 528.687,196.175 535.687,196.509 542.5,197.5C 535.167,197.5 527.833,197.5 520.5,197.5C 520.179,191.974 520.512,186.64 521.5,181.5 Z"/></g>
<g><path style="opacity:1" fill="#fcfdfe" d="M 623.5,203.5 C 628.167,203.5 632.833,203.5 637.5,203.5C 639.287,214.783 634.62,218.95 623.5,216C 618.232,211.837 618.232,207.671 623.5,203.5 Z"/></g>
<g><path style="opacity:1" fill="#31badb" d="M 493.5,208.5 C 493.56,209.043 493.893,209.376 494.5,209.5C 495.499,198.186 495.832,186.853 495.5,175.5C 497.5,175.5 499.5,175.5 501.5,175.5C 501.83,191.009 501.496,206.342 500.5,221.5C 493.36,217.428 486.36,213.095 479.5,208.5C 472.028,213.334 464.362,217.667 456.5,221.5C 456.5,206.167 456.5,190.833 456.5,175.5C 458.833,175.5 461.167,175.5 463.5,175.5C 463.333,186.838 463.5,198.172 464,209.5C 468.795,205.853 473.961,202.853 479.5,200.5C 484.157,203.162 488.823,205.829 493.5,208.5 Z"/></g>
<g><path style="opacity:1" fill="#8ad8eb" d="M 495.5,175.5 C 495.832,186.853 495.499,198.186 494.5,209.5C 493.893,209.376 493.56,209.043 493.5,208.5C 494.167,197.5 494.833,186.5 495.5,175.5 Z"/></g>
<g><path style="opacity:1" fill="#43bfdd" d="M 696.5,214.5 C 699.167,214.5 701.833,214.5 704.5,214.5C 706.167,221.5 703.5,224.167 696.5,222.5C 696.5,219.833 696.5,217.167 696.5,214.5 Z"/></g>
<g><path style="opacity:1" fill="#91daec" d="M 521.5,203.5 C 521.5,207.5 521.5,211.5 521.5,215.5C 528.687,215.175 535.687,215.509 542.5,216.5C 535.167,216.5 527.833,216.5 520.5,216.5C 520.182,211.968 520.515,207.634 521.5,203.5 Z"/></g>
</svg>
