<?xml version="1.0" encoding="UTF-8"?>
<!DOCTYPE svg PUBLIC "-//W3C//DTD SVG 1.1//EN" "http://www.w3.org/Graphics/SVG/1.1/DTD/svg11.dtd">
<svg xmlns="http://www.w3.org/2000/svg" version="1.1" width="306px" height="165px" style="shape-rendering:geometricPrecision; text-rendering:geometricPrecision; image-rendering:optimizeQuality; fill-rule:evenodd; clip-rule:evenodd" xmlns:xlink="http://www.w3.org/1999/xlink">
<g><path style="opacity:1" fill="#fffdfd" d="M -0.5,-0.5 C 48.8333,-0.5 98.1667,-0.5 147.5,-0.5C 119.848,4.98985 104.515,21.8232 101.5,50C 103.373,79.2084 118.707,96.5417 147.5,102C 174.994,104.139 194.16,92.6393 205,67.5C 211.426,45.1179 205.926,26.2845 188.5,11C 184.025,7.42895 179.025,4.92895 173.5,3.5C 172.486,2.32627 171.153,1.6596 169.5,1.5C 165.989,1.10057 162.656,0.433899 159.5,-0.5C 208.167,-0.5 256.833,-0.5 305.5,-0.5C 305.5,46.8333 305.5,94.1667 305.5,141.5C 305.167,141.5 304.833,141.5 304.5,141.5C 300.664,130.578 292.998,126.411 281.5,129C 270.226,134.132 266.726,142.632 271,154.5C 273.651,159.657 277.818,162.657 283.5,163.5C 283.5,163.833 283.5,164.167 283.5,164.5C 258.833,164.5 234.167,164.5 209.5,164.5C 209.5,164.167 209.5,163.833 209.5,163.5C 219.182,161.5 224.182,155.5 224.5,145.5C 221.967,131.55 213.634,126.05 199.5,129C 188.454,134.271 184.954,142.771 189,154.5C 191.131,158.47 194.298,161.137 198.5,162.5C 199.167,163.167 199.833,163.833 200.5,164.5C 133.5,164.5 66.5,164.5 -0.5,164.5C -0.5,109.5 -0.5,54.5 -0.5,-0.5 Z"/></g>
<g><path style="opacity:1" fill="#ed1d23" d="M 147.5,-0.5 C 151.5,-0.5 155.5,-0.5 159.5,-0.5C 162.656,0.433899 165.989,1.10057 169.5,1.5C 169.167,2.16667 168.833,2.83333 168.5,3.5C 146.697,5.79542 132.531,17.4621 126,38.5C 122.782,56.9058 129.615,69.7392 146.5,77C 161.364,79.9828 172.197,74.8161 179,61.5C 184.701,42.7323 178.201,30.5656 159.5,25C 158.614,15.0192 162.947,8.18592 172.5,4.5C 173.167,4.5 173.5,4.16667 173.5,3.5C 179.025,4.92895 184.025,7.42895 188.5,11C 205.926,26.2845 211.426,45.1179 205,67.5C 194.16,92.6393 174.994,104.139 147.5,102C 118.707,96.5417 103.373,79.2084 101.5,50C 104.515,21.8232 119.848,4.98985 147.5,-0.5 Z"/></g>
<g><path style="opacity:1" fill="#f5898a" d="M 169.5,1.5 C 171.153,1.6596 172.486,2.32627 173.5,3.5C 173.5,4.16667 173.167,4.5 172.5,4.5C 171.432,3.56552 170.099,3.23219 168.5,3.5C 168.833,2.83333 169.167,2.16667 169.5,1.5 Z"/></g>
<g><path style="opacity:1" fill="#fffcfc" d="M 168.5,3.5 C 170.099,3.23219 171.432,3.56552 172.5,4.5C 162.947,8.18592 158.614,15.0192 159.5,25C 178.201,30.5656 184.701,42.7323 179,61.5C 172.197,74.8161 161.364,79.9828 146.5,77C 129.615,69.7392 122.782,56.9058 126,38.5C 132.531,17.4621 146.697,5.79542 168.5,3.5 Z"/></g>
<g><path style="opacity:1" fill="#ec191f" d="M 177.5,113.5 C 179.833,113.5 182.167,113.5 184.5,113.5C 184.5,116.167 184.5,118.833 184.5,121.5C 182.856,121.286 181.356,121.62 180,122.5C 179.505,124.473 179.338,126.473 179.5,128.5C 181.167,128.5 182.833,128.5 184.5,128.5C 184.5,131.167 184.5,133.833 184.5,136.5C 182.833,136.5 181.167,136.5 179.5,136.5C 179.5,145.5 179.5,154.5 179.5,163.5C 176.5,163.5 173.5,163.5 170.5,163.5C 170.5,154.5 170.5,145.5 170.5,136.5C 169.167,136.5 167.833,136.5 166.5,136.5C 166.5,133.833 166.5,131.167 166.5,128.5C 167.833,128.5 169.167,128.5 170.5,128.5C 168.864,121.445 171.198,116.445 177.5,113.5 Z"/></g>
<g><path style="opacity:1" fill="#ed1d22" d="M 108.5,114.5 C 111.5,114.5 114.5,114.5 117.5,114.5C 117.5,130.833 117.5,147.167 117.5,163.5C 113.889,163.956 110.556,163.289 107.5,161.5C 94.8916,166.691 86.0582,163.024 81,150.5C 79.5818,137.594 85.2484,130.261 98,128.5C 101.758,128.142 105.091,129.142 108,131.5C 108.499,125.843 108.666,120.176 108.5,114.5 Z"/></g>
<g><path style="opacity:1" fill="#ed2225" d="M 51.5,127.5 C 61.6567,127.27 61.99,128.77 52.5,132C 44.2433,138.819 43.5766,146.152 50.5,154C 61.4453,157.059 66.2786,152.893 65,141.5C 62.9327,138.93 60.4327,136.93 57.5,135.5C 59.1719,129.951 62.5052,128.451 67.5,131C 78.4439,142.065 77.7773,152.398 65.5,162C 49.777,166.981 40.4436,161.481 37.5,145.5C 38.7884,136.878 43.4551,130.878 51.5,127.5 Z"/></g>
<g><path style="opacity:1" fill="#ed1e23" d="M 135.5,128.5 C 141.061,127.802 146.227,128.802 151,131.5C 151.483,130.552 151.649,129.552 151.5,128.5C 154.5,128.5 157.5,128.5 160.5,128.5C 160.5,140.167 160.5,151.833 160.5,163.5C 156.889,163.956 153.556,163.289 150.5,161.5C 132.549,166.783 123.715,160.116 124,141.5C 126.273,135.73 130.106,131.397 135.5,128.5 Z"/></g>
<g><path style="opacity:1" fill="#ed1d22" d="M 209.5,163.5 C 207.265,163.795 205.265,163.461 203.5,162.5C 212.621,159.888 216.787,153.888 216,144.5C 213.734,137.951 209.234,135.451 202.5,137C 196.533,140.392 195.033,145.226 198,151.5C 199.896,153.53 202.063,155.197 204.5,156.5C 203.725,158.396 202.725,160.063 201.5,161.5C 200.609,162.11 199.609,162.443 198.5,162.5C 194.298,161.137 191.131,158.47 189,154.5C 184.954,142.771 188.454,134.271 199.5,129C 213.634,126.05 221.967,131.55 224.5,145.5C 224.182,155.5 219.182,161.5 209.5,163.5 Z"/></g>
<g><path style="opacity:1" fill="#ec1920" d="M 230.5,128.5 C 233.5,128.5 236.5,128.5 239.5,128.5C 239.351,129.552 239.517,130.552 240,131.5C 241.171,130.107 242.671,129.273 244.5,129C 251.009,127.241 256.509,128.741 261,133.5C 262.449,143.395 262.949,153.395 262.5,163.5C 259.5,163.5 256.5,163.5 253.5,163.5C 253.666,155.493 253.5,147.493 253,139.5C 247.865,135.043 243.532,135.71 240,141.5C 239.5,148.826 239.334,156.159 239.5,163.5C 236.5,163.5 233.5,163.5 230.5,163.5C 230.5,151.833 230.5,140.167 230.5,128.5 Z"/></g>
<g><path style="opacity:1" fill="#ed1c21" d="M 304.5,141.5 C 304.5,143.833 304.5,146.167 304.5,148.5C 295.833,148.5 287.167,148.5 278.5,148.5C 278.263,149.791 278.596,150.791 279.5,151.5C 283.841,157.57 288.841,158.07 294.5,153C 306.299,151.428 306.966,154.428 296.5,162C 292.27,163.29 287.936,163.79 283.5,163.5C 277.818,162.657 273.651,159.657 271,154.5C 266.726,142.632 270.226,134.132 281.5,129C 292.998,126.411 300.664,130.578 304.5,141.5 Z"/></g>
<g><path style="opacity:1" fill="#ed1d22" d="M 0.5,128.5 C 3.83333,128.5 7.16667,128.5 10.5,128.5C 12.7639,136.291 15.4306,143.958 18.5,151.5C 21.5694,143.958 24.2361,136.291 26.5,128.5C 29.8984,128.18 33.2317,128.513 36.5,129.5C 32.2918,140.793 28.2918,152.126 24.5,163.5C 20.4454,163.824 16.4454,163.491 12.5,162.5C 7.89752,151.358 3.89752,140.025 0.5,128.5 Z"/></g>
<g><path style="opacity:1" fill="#fff5f5" d="M 294.5,140.5 C 289.5,141.833 284.5,141.833 279.5,140.5C 284.636,133.875 289.636,133.875 294.5,140.5 Z"/></g>
<g><path style="opacity:1" fill="#fff8f8" d="M 96.5,136.5 C 106.025,136.523 109.858,141.189 108,150.5C 103.285,156.221 97.9516,156.888 92,152.5C 87.9401,145.616 89.4401,140.283 96.5,136.5 Z"/></g>
<g><path style="opacity:1" fill="#fef9f9" d="M 139.5,136.5 C 148.97,136.474 152.804,141.141 151,150.5C 147.1,155.533 142.267,156.7 136.5,154C 130.602,146.988 131.602,141.155 139.5,136.5 Z"/></g>
<g><path style="opacity:1" fill="#fef8f8" d="M 203.5,162.5 C 202.508,162.672 201.842,162.338 201.5,161.5C 202.725,160.063 203.725,158.396 204.5,156.5C 202.063,155.197 199.896,153.53 198,151.5C 195.033,145.226 196.533,140.392 202.5,137C 209.234,135.451 213.734,137.951 216,144.5C 216.787,153.888 212.621,159.888 203.5,162.5 Z"/></g>
<g><path style="opacity:1" fill="#f7a8aa" d="M 279.5,140.5 C 284.5,141.833 289.5,141.833 294.5,140.5C 295.043,140.56 295.376,140.893 295.5,141.5C 289.833,142.833 284.167,142.833 278.5,141.5C 278.624,140.893 278.957,140.56 279.5,140.5 Z"/></g>
<g><path style="opacity:1" fill="#f8adad" d="M 304.5,141.5 C 304.833,141.5 305.167,141.5 305.5,141.5C 305.5,144.167 305.5,146.833 305.5,149.5C 296.435,148.864 287.769,149.53 279.5,151.5C 278.596,150.791 278.263,149.791 278.5,148.5C 287.167,148.5 295.833,148.5 304.5,148.5C 304.5,146.167 304.5,143.833 304.5,141.5 Z"/></g>
<g><path style="opacity:1" fill="#fff7f7" d="M 305.5,149.5 C 305.5,154.5 305.5,159.5 305.5,164.5C 298.167,164.5 290.833,164.5 283.5,164.5C 283.5,164.167 283.5,163.833 283.5,163.5C 287.936,163.79 292.27,163.29 296.5,162C 306.966,154.428 306.299,151.428 294.5,153C 288.841,158.07 283.841,157.57 279.5,151.5C 287.769,149.53 296.435,148.864 305.5,149.5 Z"/></g>
<g><path style="opacity:1" fill="#f57e7e" d="M 201.5,161.5 C 201.842,162.338 202.508,162.672 203.5,162.5C 205.265,163.461 207.265,163.795 209.5,163.5C 209.5,163.833 209.5,164.167 209.5,164.5C 206.5,164.5 203.5,164.5 200.5,164.5C 199.833,163.833 199.167,163.167 198.5,162.5C 199.609,162.443 200.609,162.11 201.5,161.5 Z"/></g>
</svg>
