<?xml version="1.0" standalone="no"?>
<!DOCTYPE svg PUBLIC "-//W3C//DTD SVG 20010904//EN"
 "http://www.w3.org/TR/2001/REC-SVG-20010904/DTD/svg10.dtd">
<svg version="1.0" xmlns="http://www.w3.org/2000/svg"
 width="306.000000pt" height="165.000000pt" viewBox="0 0 306.000000 165.000000"
 preserveAspectRatio="xMidYMid meet">

<g transform="translate(0.000000,165.000000) scale(0.100000,-0.100000)"
fill="#000000" stroke="none">
<path d="M1463 1640 c-215 -38 -380 -189 -428 -392 -75 -317 174 -620 510
-622 152 -1 286 54 390 159 154 155 188 382 88 584 -35 71 -141 178 -212 213
-51 26 -55 27 -90 12 -57 -24 -100 -72 -117 -132 -9 -29 -14 -55 -12 -56 1 -1
26 -11 53 -21 154 -56 218 -237 135 -382 -51 -90 -130 -134 -237 -134 -110 0
-198 56 -255 164 -20 36 -23 57 -23 143 0 96 2 103 38 176 63 129 186 224 322
249 87 17 94 20 62 29 -47 14 -170 19 -224 10z"/>
<path d="M1773 499 c-38 -11 -63 -52 -63 -104 0 -28 -4 -35 -20 -35 -17 0 -20
-7 -20 -40 0 -33 3 -40 20 -40 19 0 20 -7 20 -135 l0 -135 45 0 45 0 0 135 0
135 25 0 c23 0 25 4 25 40 0 36 -2 40 -26 40 -23 0 -25 3 -22 33 2 24 8 33 26
35 18 3 22 10 22 43 0 43 -11 47 -77 28z"/>
<path d="M1090 415 l0 -86 -30 16 c-63 32 -155 13 -203 -44 -71 -85 -52 -205
42 -268 40 -27 120 -31 164 -9 23 13 27 13 27 0 0 -10 12 -14 45 -14 l45 0 0
245 0 245 -45 0 -45 0 0 -85z m-36 -156 c38 -30 49 -64 36 -105 -22 -64 -108
-87 -155 -40 -35 35 -42 72 -20 111 30 56 92 71 139 34z"/>
<path d="M527 360 c-46 -9 -84 -35 -114 -80 -45 -65 -39 -147 14 -211 72 -85
230 -78 295 13 19 27 23 46 23 104 0 61 -4 75 -26 105 -52 67 -98 74 -126 18
-11 -21 -10 -25 15 -38 39 -20 51 -41 52 -84 0 -79 -91 -125 -153 -77 -81 64
-42 196 69 235 22 8 34 14 27 15 -6 0 -17 2 -25 4 -7 2 -30 0 -51 -4z"/>
<path d="M10 351 c0 -5 28 -84 61 -175 l61 -166 57 0 56 0 59 163 c33 89 61
168 64 175 3 8 -10 12 -44 12 l-49 0 -39 -115 c-21 -63 -42 -115 -45 -115 -4
0 -25 52 -47 115 l-39 115 -47 0 c-27 0 -48 -4 -48 -9z"/>
<path d="M1345 346 c-65 -28 -114 -120 -101 -189 8 -45 43 -96 85 -124 40 -27
120 -31 164 -9 23 13 27 13 27 0 0 -10 12 -14 45 -14 l45 0 0 175 0 175 -45 0
c-34 0 -45 -4 -45 -15 0 -14 -3 -14 -30 0 -35 18 -104 19 -145 1z m146 -95
c61 -61 23 -161 -61 -161 -46 0 -86 30 -95 71 -21 93 89 156 156 90z"/>
<path d="M1966 336 c-107 -64 -115 -225 -16 -296 37 -27 57 -23 84 14 18 24
19 30 6 34 -8 3 -27 18 -42 33 -39 39 -38 90 1 130 79 79 198 -13 161 -125
-14 -42 -81 -106 -113 -106 -18 0 -19 -2 -7 -10 8 -5 31 -7 50 -3 149 26 211
190 112 297 -57 61 -165 76 -236 32z"/>
<path d="M2310 185 l0 -175 45 0 45 0 0 109 c0 94 3 112 21 135 15 19 30 26
53 26 57 0 66 -21 66 -153 l0 -117 45 0 45 0 0 141 0 141 -34 34 c-30 30 -40
34 -85 34 -29 0 -65 -7 -81 -15 -27 -14 -30 -14 -30 0 0 11 -11 15 -45 15
l-45 0 0 -175z"/>
<path d="M2785 336 c-60 -36 -88 -93 -83 -166 7 -101 73 -160 180 -160 36 0
64 7 88 21 38 23 69 57 70 77 0 20 -78 15 -107 -8 -35 -28 -84 -26 -117 5 -14
13 -26 31 -26 40 0 13 19 15 129 15 143 0 142 0 130 63 -14 81 -73 130 -162
135 -52 2 -68 -1 -102 -22z m158 -77 c9 -12 17 -25 17 -30 0 -5 -38 -9 -85 -9
-47 0 -85 4 -85 9 0 5 14 21 32 36 26 22 39 26 67 21 20 -3 44 -15 54 -27z"/>
</g>
</svg>
