<svg xmlns="http://www.w3.org/2000/svg" version="1.1" xmlns:xlink="http://www.w3.org/1999/xlink" xmlns:svgjs="http://svgjs.dev/svgjs" width="1500" height="1500" viewBox="0 0 1500 1500"><rect width="1500" height="1500" fill="#000000"></rect><g transform="matrix(0.6666666666666666,0,0,0.6666666666666666,249.39393939393932,530.4056901558233)"><svg viewBox="0 0 396 174" data-background-color="#000000" preserveAspectRatio="xMidYMid meet" height="659" width="1500" xmlns="http://www.w3.org/2000/svg" xmlns:xlink="http://www.w3.org/1999/xlink"><g id="tight-bounds" transform="matrix(1,0,0,1,0.24000000000003752,-0.02865725443075462)"><svg viewBox="0 0 395.5199999999999 174.0573145088615" height="174.0573145088615" width="395.5199999999999"><g><svg viewBox="0 0 395.5199999999999 174.0573145088615" height="174.0573145088615" width="395.5199999999999"><g><svg viewBox="0 0 395.5199999999999 174.0573145088615" height="174.0573145088615" width="395.5199999999999"><g id="textblocktransform"><svg viewBox="0 0 395.5199999999999 174.0573145088615" height="174.0573145088615" width="395.5199999999999" id="textblock"><g><svg viewBox="0 0 395.5199999999999 174.0573145088615" height="174.0573145088615" width="395.5199999999999"><g transform="matrix(1,0,0,1,0,0)"><svg width="395.5199999999999" viewBox="4.03 -35.77 81.27 35.77" height="174.0573145088615" data-palette-color="#ffffff"><path d="M9.3 0L4.03 0 6.76-35.77 15.63-35.77 23.29-12.92 24.66-7.59 25.15-7.59 26.54-12.92 34.23-35.77 43.33-35.77 46.09 0 39.84 0 38.18-26.73 38.04-32.3 37.55-32.3 36.08-26.98 27.37-0.73 21.85-0.73 13.06-26.93 11.55-32.3 11.06-32.3 10.94-26.78 9.3 0ZM61.06-35.77L61.06 0 55 0 55-35.77 61.06-35.77ZM85.3 0L77.73 0 63.3-18.07 77.63-35.77 83.93-35.77 69.21-19.12 85.3 0Z" opacity="1" transform="matrix(1,0,0,1,0,0)" fill="#ffffff" class="wordmark-text-0" data-fill-palette-color="primary" id="text-0"></path></svg></g></svg></g></svg></g></svg></g></svg></g><defs></defs></svg><rect width="395.5199999999999" height="174.0573145088615" fill="none" stroke="none" visibility="hidden"></rect></g></svg></g></svg>